<svg xmlns="http://www.w3.org/2000/svg" xmlns:xlink="http://www.w3.org/1999/xlink" xmlns:lucid="lucid" width="1209" height="750"><g transform="translate(314 -2445)" lucid:page-tab-id="0_0"><path d="M-237.9 2566a6 6 0 0 1 6-6H814a6 6 0 0 1 6 6v568a6 6 0 0 1-6 6H-231.9a6 6 0 0 1-6-6z" stroke="#3a414a" stroke-width="2" fill="#fff"/><path d="M-237.9 2473.6a6 6 0 0 1 6-6h922.32a6 6 0 0 1 6 6v68.4a6 6 0 0 1-6 6H-231.9a6 6 0 0 1-6-6z" fill="#3a414a"/><use xlink:href="#a" transform="matrix(1,0,0,1,-221.9000000000001,2483.6015625) translate(0 39.05078125)"/><use xlink:href="#b" transform="matrix(1,0,0,1,-221.9000000000001,2483.6015625) translate(178.53515625 39.05078125)"/><use xlink:href="#c" transform="matrix(1,0,0,1,-221.9000000000001,2483.6015625) translate(214.1796875 39.05078125)"/><use xlink:href="#d" transform="matrix(1,0,0,1,-221.9000000000001,2483.6015625) translate(354.47265625 39.05078125)"/><use xlink:href="#e" transform="matrix(1,0,0,1,-221.9000000000001,2483.6015625) translate(444.8828125 39.05078125)"/><use xlink:href="#f" transform="matrix(1,0,0,1,-221.9000000000001,2483.6015625) translate(599.6484375 39.05078125)"/><use xlink:href="#g" transform="matrix(1,0,0,1,-221.9000000000001,2483.6015625) translate(688.984375 39.05078125)"/><path d="M-157.9 2666a6 6 0 0 1 6-6h877.5a6 6 0 0 1 6 6v428a6 6 0 0 1-6 6h-877.5a6 6 0 0 1-6-6z" stroke="#00c2a8" stroke-width="2" fill="#dfe3e8"/><path d="M-157.9 2616.5a6 6 0 0 1 6-6h87.68a6 6 0 0 1 6 6v25.5a6 6 0 0 1-6 6h-87.68a6 6 0 0 1-6-6z" fill="#00c2a8"/><use xlink:href="#h" transform="matrix(1,0,0,1,-149.9000000000001,2618.4895833333335) translate(0 17.46701388888889)"/><use xlink:href="#i" transform="matrix(1,0,0,1,-149.9000000000001,2618.4895833333335) translate(76.44965277777779 17.46701388888889)"/><path d="M577.2 2740H640v24.14h-62.8zm32 24.14H640v109.48h-30.8zm-32 109.48H640v19.72h-31.6l-6-12.24h-25.2zM441 2765.84h166.2v106.25H441zm76 108.12h15.8v7.82H517zm-69.4 9.7h154l13 26.34H440z" fill="#29aae1"/><path d="M468.8 2887.9h4.2v3.4h-4.2zm7 0h4.2v3.4h-4.2zm7 0h4.2v3.4h-4.2zm7 0h4.2v3.4h-4.2zm7 0h4.2v3.4h-4.2zm7 0h4.2v3.4h-4.2zm7 0h4.2v3.4h-4.2zm7 0h4.2v3.4h-4.2zm7 0h4.2v3.4h-4.2zm7 0h4.2v3.4h-4.2zm7 0h4.2v3.4h-4.2zm7 0h4.2v3.4h-4.2zm7 0h4.2v3.4h-4.2zm7 0h4.2v3.4h-4.2zm7 0h4.2v3.4h-4.2zm6.8 0h4.2v3.4h-4.2zm-88.2 5.78h4.2v3.4h-4.2zm7.4 0h4.2v3.4h-4.2zm7.4 0h4.2v3.4h-4.2zm7.4 0h4.2v3.4h-4.2zm7.4 0h4.2v3.4H515zm7.4 0h4.2v3.4h-4.2zm7.4 0h4.2v3.4h-4.2zm7.4 0h4.2v3.4h-4.2zm7.4 0h4.2v3.4h-4.2zm7.4 0h4.2v3.4H552zm6.4 0h4.2v3.4h-4.2zm-59.2 9.52h55.2v5.27h-55.2zm-50.6-130.9h151.6v95.03H448.6zM620.4 2749a1.02 1.02 0 0 1 1.02-1h11.56a1.02 1.02 0 0 1 1.02 1 1.02 1.02 0 0 1-1.02 1.03h-11.56a1.02 1.02 0 0 1-1.02-1.02zm0 5.62a1.02 1.02 0 0 1 1.02-1.02h11.56a1.02 1.02 0 0 1 1.02 1.02 1.02 1.02 0 0 1-1.02 1.02h-11.56a1.02 1.02 0 0 1-1.02-1.02z" fill="#fff"/><use xlink:href="#j" transform="matrix(1,0,0,1,410,2910) translate(83.564453125 21.818142361111114)"/><use xlink:href="#k" transform="matrix(1,0,0,1,410,2910) translate(161.89561631944446 21.818142361111114)"/><use xlink:href="#l" transform="matrix(1,0,0,1,410,2910) translate(26.614583333333343 54.083767361111114)"/><use xlink:href="#m" transform="matrix(1,0,0,1,410,2910) translate(88.30078125000001 54.083767361111114)"/><use xlink:href="#n" transform="matrix(1,0,0,1,410,2910) translate(173.99956597222223 54.083767361111114)"/><use xlink:href="#o" transform="matrix(1,0,0,1,410,2910) translate(190.47092013888889 54.083767361111114)"/><use xlink:href="#p" transform="matrix(1,0,0,1,410,2910) translate(61.391059027777786 86.34939236111111)"/><path d="M70.9 2745h62.8v24.14H70.9zm32 24.14h30.8v109.48h-30.8zm-32 109.48h62.8v19.72h-31.6l-6-12.24H70.9zm-136.2-107.78h166.2v106.25H-65.3zm76 108.12h15.8v7.82H10.7zm-69.4 9.7h154l13 26.34H-66.3z" fill="#29aae1"/><path d="M-37.5 2892.9h4.2v3.4h-4.2zm7 0h4.2v3.4h-4.2zm7 0h4.2v3.4h-4.2zm7 0h4.2v3.4h-4.2zm7 0h4.2v3.4h-4.2zm7 0h4.2v3.4h-4.2zm7 0h4.2v3.4H4.5zm7 0h4.2v3.4h-4.2zm7 0h4.2v3.4h-4.2zm7 0h4.2v3.4h-4.2zm7 0h4.2v3.4h-4.2zm7 0h4.2v3.4h-4.2zm7 0h4.2v3.4h-4.2zm7 0h4.2v3.4h-4.2zm7 0h4.2v3.4h-4.2zm6.8 0h4.2v3.4h-4.2zm-88.2 5.78h4.2v3.4h-4.2zm7.4 0h4.2v3.4h-4.2zm7.4 0h4.2v3.4h-4.2zm7.4 0h4.2v3.4H1.3zm7.4 0h4.2v3.4H8.7zm7.4 0h4.2v3.4h-4.2zm7.4 0h4.2v3.4h-4.2zm7.4 0h4.2v3.4h-4.2zm7.4 0h4.2v3.4h-4.2zm7.4 0h4.2v3.4h-4.2zm6.4 0h4.2v3.4h-4.2zm-59.2 9.52h55.2v5.27H-7.1zm-50.6-130.9H93.9v95.03H-57.7zM114.1 2754a1.02 1.02 0 0 1 1.02-1h11.56a1.02 1.02 0 0 1 1.02 1 1.02 1.02 0 0 1-1.02 1.03h-11.56a1.02 1.02 0 0 1-1.02-1.02zm0 5.62a1.02 1.02 0 0 1 1.02-1.02h11.56a1.02 1.02 0 0 1 1.02 1.02 1.02 1.02 0 0 1-1.02 1.02h-11.56a1.02 1.02 0 0 1-1.02-1.02z" fill="#fff"/><use xlink:href="#j" transform="matrix(1,0,0,1,-96.30000000000007,2915) translate(83.16840277777777 21.95095486111111)"/><use xlink:href="#q" transform="matrix(1,0,0,1,-96.30000000000007,2915) translate(161.49956597222223 21.95095486111111)"/><use xlink:href="#r" transform="matrix(1,0,0,1,-96.30000000000007,2915) translate(130 54.21657986111111)"/><path d="M440 2816a6 6 0 0 1 6-6h48a6 6 0 0 1 6 6v28a6 6 0 0 1-6 6h-48a6 6 0 0 1-6-6z" stroke="#000" stroke-width="2" fill="#dfe3e8"/><g><use xlink:href="#s" transform="matrix(1,0,0,1,445,2815) translate(1.7805989583333357 20.416666666666668)"/><use xlink:href="#t" transform="matrix(1,0,0,1,445,2815) translate(31.559244791666668 20.416666666666668)"/></g><path d="M133.7 2806a6 6 0 0 1 6-6H434a6 6 0 0 1 6 6v48a6 6 0 0 1-6 6H139.7a6 6 0 0 1-6-6z" stroke="#000" stroke-width="2" fill="#fcfcca"/><g><use xlink:href="#u" transform="matrix(1,0,0,1,138.69999999999987,2805) translate(73.91232638888889 34.27777777777778)"/><use xlink:href="#v" transform="matrix(1,0,0,1,138.69999999999987,2805) translate(101.36458333333333 34.27777777777778)"/><use xlink:href="#w" transform="matrix(1,0,0,1,138.69999999999987,2805) translate(152.64496527777777 34.27777777777778)"/></g><path d="M73.7 2816a6 6 0 0 1 6-6h48a6 6 0 0 1 6 6v28a6 6 0 0 1-6 6h-48a6 6 0 0 1-6-6z" stroke="#000" stroke-width="2" fill="#dfe3e8"/><g><use xlink:href="#s" transform="matrix(1,0,0,1,78.69999999999993,2815) translate(1.7805989583333357 20.416666666666668)"/><use xlink:href="#t" transform="matrix(1,0,0,1,78.69999999999993,2815) translate(31.559244791666668 20.416666666666668)"/></g><path d="M-87.57 2703.87a6 6 0 0 1 6-6h230.54a6 6 0 0 1 6 6V2734a6 6 0 0 1-6 6H-81.57a6 6 0 0 1-6-6z" stroke="#000" stroke-width="2" fill="#fff"/><g><use xlink:href="#x" transform="matrix(1,0,0,1,-82.56666666666678,2702.866666666666) translate(21.118055555555543 23.40972222222222)"/><use xlink:href="#y" transform="matrix(1,0,0,1,-82.56666666666678,2702.866666666666) translate(58.06249999999999 23.40972222222222)"/></g><path d="M33.7 2743.5v10.5a6 6 0 0 0 6 6h58a6 6 0 0 1 6 6v18.14" stroke="#3a414a" stroke-width="5" fill="none"/><path d="M36.17 2743.56h-4.95V2741h4.95z" stroke="#3a414a" stroke-width=".05" fill="#3a414a"/><path d="M103.7 2800.9l-4.64-14.26h9.27z" stroke="#3a414a" stroke-width="5" fill="#3a414a"/><path d="M380 3026a6 6 0 0 1 6-6h308a6 6 0 0 1 6 6v28a6 6 0 0 1-6 6H386a6 6 0 0 1-6-6z" stroke="#000" stroke-width="2" fill="#fff"/><g><use xlink:href="#z" transform="matrix(1,0,0,1,385,3025) translate(4.195421006944429 20.694444444444446)"/><use xlink:href="#A" transform="matrix(1,0,0,1,385,3025) translate(34.189995659722214 20.694444444444446)"/><use xlink:href="#B" transform="matrix(1,0,0,1,385,3025) translate(55.73079427083332 20.694444444444446)"/><use xlink:href="#C" transform="matrix(1,0,0,1,385,3025) translate(174.40266927083334 20.694444444444446)"/></g><defs><path fill="#fff" d="M657 26c-323 0-524-166-541-416h195c15 169 171 246 346 246 202 0 356-106 356-265 5-203-294-238-475-293-239-73-380-191-380-389 0-252 224-419 512-419 294 0 499 171 508 396H992c-17-145-151-228-328-228-193 0-321 102-321 242 0 156 175 211 284 241l149 41c160 44 422 134 422 412 0 244-197 432-541 432" id="D"/><path fill="#fff" d="M613 24c-304 0-509-231-509-576 0-350 205-580 509-580 216 0 392 114 453 309l-173 49c-33-115-133-197-280-197-223 0-326 196-326 419 0 220 103 415 326 415 150 0 252-85 285-206l172 49C1010-95 832 24 613 24" id="E"/><path fill="#fff" d="M628 24c-324 0-524-230-524-574 0-343 198-582 503-582 237 0 487 146 487 559v75H286c9 234 145 362 343 362 132 0 231-58 273-172l174 48C1024-91 857 24 628 24zM287-650h624c-17-190-120-322-304-322-192 0-309 151-320 322" id="F"/><path fill="#fff" d="M338-670V0H158v-1118h173l1 207c72-158 192-221 342-221 226 0 378 139 378 422V0H872v-695c0-172-96-275-252-275-161 0-282 109-282 300" id="G"/><path fill="#fff" d="M471 26C259 26 90-98 90-318c0-256 228-303 435-329 202-27 287-16 287-108 0-139-79-219-234-219-161 0-248 86-283 164l-173-57c86-203 278-265 451-265 150 0 419 46 419 395V0H815v-152h-12C765-73 660 26 471 26zm31-159c199 0 310-134 310-271v-155c-30 35-226 55-295 64-131 17-246 59-246 186 0 116 97 176 231 176" id="H"/><path fill="#fff" d="M158 0v-1118h174v172h12c41-113 157-188 290-188 26 0 70 2 91 3v181c-11-2-60-10-108-10-161 0-279 109-279 260V0H158" id="I"/><path fill="#fff" d="M158 0v-1118h180V0H158zm91-1301c-68 0-125-53-125-119s57-119 125-119c69 0 126 53 126 119s-57 119-126 119" id="J"/><path fill="#fff" d="M613 24c-304 0-509-231-509-576 0-350 205-580 509-580 305 0 511 230 511 580 0 345-206 576-511 576zm0-161c226 0 329-195 329-415 0-222-103-419-329-419-223 0-326 196-326 419 0 220 103 415 326 415" id="K"/><g id="a"><use transform="matrix(0.01953125,0,0,0.01953125,0,0)" xlink:href="#D"/><use transform="matrix(0.01953125,0,0,0.01953125,25.6640625,0)" xlink:href="#E"/><use transform="matrix(0.01953125,0,0,0.01953125,48.515625,0)" xlink:href="#F"/><use transform="matrix(0.01953125,0,0,0.01953125,71.8359375,0)" xlink:href="#G"/><use transform="matrix(0.01953125,0,0,0.01953125,95.46875,0)" xlink:href="#H"/><use transform="matrix(0.01953125,0,0,0.01953125,117.9296875,0)" xlink:href="#I"/><use transform="matrix(0.01953125,0,0,0.01953125,133.61328125,0)" xlink:href="#J"/><use transform="matrix(0.01953125,0,0,0.01953125,143.30078125,0)" xlink:href="#K"/></g><path fill="#fff" d="M154 0v-137l495-537c165-179 249-281 249-418 0-156-121-253-280-253-170 0-278 110-278 278H158c0-264 200-443 465-443 266 0 455 183 455 416 0 161-73 288-336 568L416-179v12h687V0H154" id="L"/><use transform="matrix(0.01953125,0,0,0.01953125,0,0)" xlink:href="#L" id="b"/><path fill="#fff" d="M338-1490V0H158v-1490h180" id="M"/><path fill="#fff" d="M481 0L54-1118h197c107 314 236 620 325 951 87-331 217-637 324-951h197L670 0H481" id="N"/><path fill="#fff" d="M577 24c-279 0-473-224-473-580 0-354 195-576 474-576 218 0 287 134 324 193h14v-551h180V0H922v-173h-20C865-111 790 24 577 24zm27-161c203 0 314-172 314-421 0-247-108-413-314-413-212 0-317 181-317 413 0 235 108 421 317 421" id="O"/><g id="c"><use transform="matrix(0.01953125,0,0,0.01953125,0,0)" xlink:href="#D"/><use transform="matrix(0.01953125,0,0,0.01953125,25.6640625,0)" xlink:href="#K"/><use transform="matrix(0.01953125,0,0,0.01953125,49.6484375,0)" xlink:href="#M"/><use transform="matrix(0.01953125,0,0,0.01953125,59.53125,0)" xlink:href="#N"/><use transform="matrix(0.01953125,0,0,0.01953125,81.23046875,0)" xlink:href="#F"/><use transform="matrix(0.01953125,0,0,0.01953125,104.55078125,0)" xlink:href="#O"/></g><path fill="#fff" d="M409 0L70-1118h191c89 329 165 560 243 925 75-353 154-601 240-925h192c85 325 161 564 235 922 77-354 157-598 244-922h191L1267 0h-179c-86-307-176-590-250-913C763-588 675-308 588 0H409" id="P"/><path fill="#fff" d="M598-1118v154H368v674c0 100 37 144 132 144 23 0 62-6 92-12L629-6c-37 13-88 20-134 20-193 0-307-107-307-290v-688H20v-154h168v-266h180v266h230" id="Q"/><path fill="#fff" d="M338-670V0H158v-1490h180v566c73-149 190-208 336-208 226 0 379 139 379 422V0H872v-695c0-172-96-275-252-275-161 0-282 109-282 300" id="R"/><g id="d"><use transform="matrix(0.01953125,0,0,0.01953125,0,0)" xlink:href="#P"/><use transform="matrix(0.01953125,0,0,0.01953125,32.734375,0)" xlink:href="#J"/><use transform="matrix(0.01953125,0,0,0.01953125,42.421875,0)" xlink:href="#Q"/><use transform="matrix(0.01953125,0,0,0.01953125,55.5078125,0)" xlink:href="#R"/></g><path fill="#fff" d="M180 0v-1490h510c348 0 508 194 508 460 0 198-88 351-276 417L1256 0h-220L726-579c-117 2-238 0-356 1V0H180zm190-747h312c235 0 327-108 327-283 0-177-92-293-329-293H370v576" id="S"/><path fill="#fff" d="M158 0v-1118h175l1 205c55-151 181-225 313-225 147 0 245 90 285 228 53-141 190-228 352-228 194 0 352 125 352 384V0h-181v-749c0-161-105-225-225-225-151 0-243 103-243 244V0H807v-767c0-124-93-207-219-207-131 0-250 92-250 270V0H158" id="T"/><g id="e"><use transform="matrix(0.01953125,0,0,0.01953125,0,0)" xlink:href="#S"/><use transform="matrix(0.01953125,0,0,0.01953125,25.15625,0)" xlink:href="#F"/><use transform="matrix(0.01953125,0,0,0.01953125,48.4765625,0)" xlink:href="#T"/><use transform="matrix(0.01953125,0,0,0.01953125,83.515625,0)" xlink:href="#K"/><use transform="matrix(0.01953125,0,0,0.01953125,107.5,0)" xlink:href="#Q"/><use transform="matrix(0.01953125,0,0,0.01953125,120.1953125,0)" xlink:href="#F"/></g><path fill="#fff" d="M180 0v-1490h510c348 0 508 209 508 474 0 266-160 477-507 477H370V0H180zm190-706h312c236 0 327-133 327-310 0-176-91-307-329-307H370v617" id="U"/><g id="f"><use transform="matrix(0.01953125,0,0,0.01953125,0,0)" xlink:href="#U"/><use transform="matrix(0.01953125,0,0,0.01953125,25.33203125,0)" xlink:href="#K"/><use transform="matrix(0.01953125,0,0,0.01953125,49.31640625,0)" xlink:href="#I"/><use transform="matrix(0.01953125,0,0,0.01953125,65,0)" xlink:href="#Q"/></g><path fill="#fff" d="M180 0v-1490h901v168H370v510h643v168H370V0H180" id="V"/><path fill="#fff" d="M611 442c-248 0-391-105-460-228l146-94c47 65 117 165 314 165 178 0 307-82 307-266v-224h-17C863-141 792-18 576-18c-268 0-472-195-472-546 0-346 197-568 476-568 216 0 288 133 326 193h17v-179h175V29c0 289-215 413-487 413zm-5-620c203 0 314-146 314-390 0-237-108-403-314-403-213 0-319 180-319 403 0 230 109 390 319 390" id="W"/><g id="g"><use transform="matrix(0.01953125,0,0,0.01953125,0,0)" xlink:href="#V"/><use transform="matrix(0.01953125,0,0,0.01953125,22.03125,0)" xlink:href="#K"/><use transform="matrix(0.01953125,0,0,0.01953125,46.015625,0)" xlink:href="#I"/><use transform="matrix(0.01953125,0,0,0.01953125,61.40625,0)" xlink:href="#P"/><use transform="matrix(0.01953125,0,0,0.01953125,94.140625,0)" xlink:href="#H"/><use transform="matrix(0.01953125,0,0,0.01953125,116.6015625,0)" xlink:href="#I"/><use transform="matrix(0.01953125,0,0,0.01953125,130.99609375,0)" xlink:href="#O"/><use transform="matrix(0.01953125,0,0,0.01953125,155.48828125,0)" xlink:href="#J"/><use transform="matrix(0.01953125,0,0,0.01953125,165.17578125,0)" xlink:href="#G"/><use transform="matrix(0.01953125,0,0,0.01953125,188.80859375,0)" xlink:href="#W"/></g><path d="M180 0v-1490h224l606 953c40 63 108 177 176 312-27-437-7-821-13-1265h190V0h-226C860-448 622-778 356-1262c27 476 11 792 15 1262H180" id="X"/><path d="M628 24c-324 0-524-230-524-574 0-343 198-582 503-582 237 0 487 146 487 559v75H286c9 234 145 362 343 362 132 0 231-58 273-172l174 48C1024-91 857 24 628 24zM287-650h624c-17-190-120-322-304-322-192 0-309 151-320 322" id="Y"/><path d="M598-1118v154H368v674c0 100 37 144 132 144 23 0 62-6 92-12L629-6c-37 13-88 20-134 20-193 0-307-107-307-290v-688H20v-154h168v-266h180v266h230" id="Z"/><path d="M409 0L70-1118h191c89 329 165 560 243 925 75-353 154-601 240-925h192c85 325 161 564 235 922 77-354 157-598 244-922h191L1267 0h-179c-86-307-176-590-250-913C763-588 675-308 588 0H409" id="aa"/><path d="M613 24c-304 0-509-231-509-576 0-350 205-580 509-580 305 0 511 230 511 580 0 345-206 576-511 576zm0-161c226 0 329-195 329-415 0-222-103-419-329-419-223 0-326 196-326 419 0 220 103 415 326 415" id="ab"/><path d="M158 0v-1118h174v172h12c41-113 157-188 290-188 26 0 70 2 91 3v181c-11-2-60-10-108-10-161 0-279 109-279 260V0H158" id="ac"/><path d="M158 0v-1490h180v865h22l478-493h223L593-638 1096 0H865L456-523 338-412V0H158" id="ad"/><g id="h"><use transform="matrix(0.008680555555555556,0,0,0.008680555555555556,0,0)" xlink:href="#X"/><use transform="matrix(0.008680555555555556,0,0,0.008680555555555556,13.394097222222223,0)" xlink:href="#Y"/><use transform="matrix(0.008680555555555556,0,0,0.008680555555555556,23.758680555555557,0)" xlink:href="#Z"/><use transform="matrix(0.008680555555555556,0,0,0.008680555555555556,29.835069444444446,0)" xlink:href="#aa"/><use transform="matrix(0.008680555555555556,0,0,0.008680555555555556,44.0625,0)" xlink:href="#ab"/><use transform="matrix(0.008680555555555556,0,0,0.008680555555555556,54.72222222222222,0)" xlink:href="#ac"/><use transform="matrix(0.008680555555555556,0,0,0.008680555555555556,61.692708333333336,0)" xlink:href="#ad"/></g><path d="M653-1490V0H466v-1314h-10L96-1047v-204l324-239h233" id="ae"/><use transform="matrix(0.008680555555555556,0,0,0.008680555555555556,0,0)" xlink:href="#ae" id="i"/><path d="M645 0H180v-1490h484c435 0 692 280 692 742 0 466-257 748-711 748zM370-168h263c363 0 539-218 539-580 0-358-176-574-521-574H370v1154" id="af"/><path d="M481 0L54-1118h197c107 314 236 620 325 951 87-331 217-637 324-951h197L670 0H481" id="ag"/><path d="M158 0v-1118h180V0H158zm91-1301c-68 0-125-53-125-119s57-119 125-119c69 0 126 53 126 119s-57 119-126 119" id="ah"/><path d="M613 24c-304 0-509-231-509-576 0-350 205-580 509-580 216 0 392 114 453 309l-173 49c-33-115-133-197-280-197-223 0-326 196-326 419 0 220 103 415 326 415 150 0 252-85 285-206l172 49C1010-95 832 24 613 24" id="ai"/><g id="j"><use transform="matrix(0.010850694444444444,0,0,0.010850694444444444,0,0)" xlink:href="#af"/><use transform="matrix(0.010850694444444444,0,0,0.010850694444444444,16.03732638888889,0)" xlink:href="#Y"/><use transform="matrix(0.010850694444444444,0,0,0.010850694444444444,28.559027777777775,0)" xlink:href="#ag"/><use transform="matrix(0.010850694444444444,0,0,0.010850694444444444,41.048177083333336,0)" xlink:href="#ah"/><use transform="matrix(0.010850694444444444,0,0,0.010850694444444444,46.43012152777778,0)" xlink:href="#ai"/><use transform="matrix(0.010850694444444444,0,0,0.010850694444444444,59.12543402777778,0)" xlink:href="#Y"/></g><path d="M180 0v-1490h528c311 0 458 177 458 395 0 191-114 278-244 313v14c139 9 302 137 302 371 0 225-148 397-499 397H180zm190-168h350c232 0 321-102 321-231 0-149-120-277-311-277H370v508zm0-668h328c160 0 286-101 286-255 0-129-87-231-280-231H370v486" id="aj"/><use transform="matrix(0.010850694444444444,0,0,0.010850694444444444,0,0)" xlink:href="#aj" id="k"/><path d="M218-607c0-325 108-727 258-974h175c-155 315-250 682-250 974 0 265 78 531 250 886H476C306-10 218-315 218-607" id="ak"/><path d="M458 0L52-1490h194c108 439 233 855 324 1313 92-459 221-873 331-1313h216c110 438 234 854 330 1307 92-455 216-869 323-1307h196L1558 0h-221l-256-944c-26-95-50-200-73-331-22 122-44 223-73 331L680 0H458" id="al"/><path d="M677 24c-213 0-288-135-325-197h-20V0H158v-1490h180v551h14c37-59 106-193 324-193 279 0 474 222 474 576 0 356-194 580-473 580zm-27-161c209 0 317-186 317-421 0-232-105-413-317-413-206 0-314 166-314 413 0 249 111 421 314 421" id="am"/><g id="l"><use transform="matrix(0.010850694444444444,0,0,0.010850694444444444,0,0)" xlink:href="#ak"/><use transform="matrix(0.010850694444444444,0,0,0.010850694444444444,8.10546875,0)" xlink:href="#al"/><use transform="matrix(0.010850694444444444,0,0,0.010850694444444444,28.873697916666664,0)" xlink:href="#Y"/><use transform="matrix(0.010850694444444444,0,0,0.010850694444444444,41.829427083333336,0)" xlink:href="#am"/></g><path d="M657 26c-323 0-524-166-541-416h195c15 169 171 246 346 246 202 0 356-106 356-265 5-203-294-238-475-293-239-73-380-191-380-389 0-252 224-419 512-419 294 0 499 171 508 396H992c-17-145-151-228-328-228-193 0-321 102-321 242 0 156 175 211 284 241l149 41c160 44 422 134 422 412 0 244-197 432-541 432" id="an"/><g id="m"><use transform="matrix(0.010850694444444444,0,0,0.010850694444444444,0,0)" xlink:href="#an"/><use transform="matrix(0.010850694444444444,0,0,0.010850694444444444,14.2578125,0)" xlink:href="#Y"/><use transform="matrix(0.010850694444444444,0,0,0.010850694444444444,27.213541666666664,0)" xlink:href="#ac"/><use transform="matrix(0.010850694444444444,0,0,0.010850694444444444,35.92664930555555,0)" xlink:href="#ag"/><use transform="matrix(0.010850694444444444,0,0,0.010850694444444444,48.41579861111111,0)" xlink:href="#ah"/><use transform="matrix(0.010850694444444444,0,0,0.010850694444444444,53.79774305555556,0)" xlink:href="#ai"/><use transform="matrix(0.010850694444444444,0,0,0.010850694444444444,66.49305555555554,0)" xlink:href="#Y"/></g><path d="M798-719v166H144v-166h654" id="ao"/><use transform="matrix(0.010850694444444444,0,0,0.010850694444444444,0,0)" xlink:href="#ao" id="n"/><path d="M158 418v-1536h174v179h20c37-59 106-193 324-193 279 0 474 222 474 576 0 356-194 580-473 580-213 0-288-135-325-197h-14v591H158zm492-555c209 0 317-186 317-421 0-232-105-413-317-413-206 0-314 166-314 413 0 249 111 421 314 421" id="ap"/><g id="o"><use transform="matrix(0.010850694444444444,0,0,0.010850694444444444,0,0)" xlink:href="#ap"/><use transform="matrix(0.010850694444444444,0,0,0.010850694444444444,13.606770833333332,0)" xlink:href="#ab"/><use transform="matrix(0.010850694444444444,0,0,0.010850694444444444,26.931423611111104,0)" xlink:href="#ac"/><use transform="matrix(0.010850694444444444,0,0,0.010850694444444444,35.64453124999999,0)" xlink:href="#Z"/></g><path d="M338-1490V0H158v-1490h180" id="aq"/><path d="M471 26C259 26 90-98 90-318c0-256 228-303 435-329 202-27 287-16 287-108 0-139-79-219-234-219-161 0-248 86-283 164l-173-57c86-203 278-265 451-265 150 0 419 46 419 395V0H815v-152h-12C765-73 660 26 471 26zm31-159c199 0 310-134 310-271v-155c-30 35-226 55-295 64-131 17-246 59-246 186 0 116 97 176 231 176" id="ar"/><path d="M338-670V0H158v-1490h180v566c73-149 190-208 336-208 226 0 379 139 379 422V0H872v-695c0-172-96-275-252-275-161 0-282 109-282 300" id="as"/><path d="M538 24C308 24 148-78 108-271l171-41c32 123 123 178 257 178 156 0 256-77 256-169 0-77-54-128-164-154l-186-44c-203-48-300-148-300-305 0-192 176-326 414-326 230 0 351 112 402 269l-163 42c-31-80-94-158-238-158-133 0-233 69-233 162 0 83 57 129 188 160l169 40c203 48 298 149 298 302 0 196-179 339-441 339" id="at"/><path d="M295 13c-75 0-135-60-135-135s60-135 135-135 135 60 135 135S370 13 295 13zm0-809c-75 0-135-60-135-135s60-135 135-135 135 60 135 135-60 135-135 135" id="au"/><path d="M633 20c-303 0-511-173-511-416 0-188 124-348 291-378v-8c-145-37-237-174-237-332 0-227 192-396 457-396 261 0 456 169 456 396 0 158-94 295-235 332v8c162 30 291 190 291 378 0 243-212 416-512 416zm0-165c197 0 322-103 322-261 0-165-138-283-322-283-188 0-324 118-324 283 0 158 123 261 324 261zm0-703c157 0 272-101 272-252 0-149-110-246-272-246-165 0-273 97-273 246 0 151 112 252 273 252" id="av"/><path d="M646 20c-332 0-524-278-524-764 0-483 194-766 524-766s524 283 524 766c0 485-191 764-524 764zm0-166c218 0 341-220 341-598 0-380-123-601-341-601s-341 222-341 601c0 378 123 598 341 598" id="aw"/><path d="M96 279C273-86 346-350 346-607c0-292-95-659-250-974h175c150 246 258 650 258 974 0 297-91 602-258 886H96" id="ax"/><g id="p"><use transform="matrix(0.010850694444444444,0,0,0.010850694444444444,0,0)" xlink:href="#aq"/><use transform="matrix(0.010850694444444444,0,0,0.010850694444444444,5.381944444444445,0)" xlink:href="#ab"/><use transform="matrix(0.010850694444444444,0,0,0.010850694444444444,18.70659722222222,0)" xlink:href="#ai"/><use transform="matrix(0.010850694444444444,0,0,0.010850694444444444,31.61892361111111,0)" xlink:href="#ar"/><use transform="matrix(0.010850694444444444,0,0,0.010850694444444444,44.09722222222222,0)" xlink:href="#aq"/><use transform="matrix(0.010850694444444444,0,0,0.010850694444444444,49.479166666666664,0)" xlink:href="#as"/><use transform="matrix(0.010850694444444444,0,0,0.010850694444444444,62.619357638888886,0)" xlink:href="#ab"/><use transform="matrix(0.010850694444444444,0,0,0.010850694444444444,75.94401041666666,0)" xlink:href="#at"/><use transform="matrix(0.010850694444444444,0,0,0.010850694444444444,87.6736111111111,0)" xlink:href="#Z"/><use transform="matrix(0.010850694444444444,0,0,0.010850694444444444,94.94357638888887,0)" xlink:href="#au"/><use transform="matrix(0.010850694444444444,0,0,0.010850694444444444,101.34548611111111,0)" xlink:href="#av"/><use transform="matrix(0.010850694444444444,0,0,0.010850694444444444,115.09331597222221,0)" xlink:href="#aw"/><use transform="matrix(0.010850694444444444,0,0,0.010850694444444444,129.11241319444443,0)" xlink:href="#ax"/></g><path d="M52 0l541-1490h220L1361 0h-200l-149-416H398L254 0H52zm404-582h497c-103-290-145-390-251-756-108 377-145 460-246 756" id="ay"/><use transform="matrix(0.010850694444444444,0,0,0.010850694444444444,0,0)" xlink:href="#ay" id="q"/><path d="M180 0v-1490h510c348 0 508 209 508 474 0 266-160 477-507 477H370V0H180zm190-706h312c236 0 327-133 327-310 0-176-91-307-329-307H370v617" id="az"/><g id="s"><use transform="matrix(0.006510416666666667,0,0,0.006510416666666667,0,0)" xlink:href="#az"/><use transform="matrix(0.006510416666666667,0,0,0.006510416666666667,8.444010416666666,0)" xlink:href="#ab"/><use transform="matrix(0.006510416666666667,0,0,0.006510416666666667,16.438802083333332,0)" xlink:href="#ac"/><use transform="matrix(0.006510416666666667,0,0,0.006510416666666667,21.666666666666664,0)" xlink:href="#Z"/></g><g id="t"><use transform="matrix(0.006510416666666667,0,0,0.006510416666666667,0,0)" xlink:href="#av"/><use transform="matrix(0.006510416666666667,0,0,0.006510416666666667,8.248697916666668,0)" xlink:href="#aw"/></g><path d="M854 0L202-652l652-652 116 116c-165 167-335 338-528 481 76-15 153-28 230-28h1026v166H672c-77 0-154-13-230-28 192 142 364 314 528 481" id="aA"/><use transform="matrix(0.010850694444444444,0,0,0.010850694444444444,0,0)" xlink:href="#aA" id="u"/><path d="M180 0v-1490h190v644h782v-644h190V0h-190v-678H370V0H180" id="aB"/><g id="v"><use transform="matrix(0.010850694444444444,0,0,0.010850694444444444,0,0)" xlink:href="#an"/><use transform="matrix(0.010850694444444444,0,0,0.010850694444444444,14.2578125,0)" xlink:href="#an"/><use transform="matrix(0.010850694444444444,0,0,0.010850694444444444,28.515625,0)" xlink:href="#aB"/></g><path d="M98-1322v-168h1126v168H757V0H567v-1322H98" id="aC"/><path d="M537 14c-226 0-379-139-379-422v-710h180v695c0 172 97 275 253 275 160 0 281-109 281-300v-670h181V0H879v-209C806-46 684 14 537 14" id="aD"/><path d="M338-670V0H158v-1118h173l1 207c72-158 192-221 342-221 226 0 378 139 378 422V0H872v-695c0-172-96-275-252-275-161 0-282 109-282 300" id="aE"/><g id="w"><use transform="matrix(0.010850694444444444,0,0,0.010850694444444444,0,0)" xlink:href="#aC"/><use transform="matrix(0.010850694444444444,0,0,0.010850694444444444,12.706163194444445,0)" xlink:href="#aD"/><use transform="matrix(0.010850694444444444,0,0,0.010850694444444444,25.846354166666664,0)" xlink:href="#aE"/><use transform="matrix(0.010850694444444444,0,0,0.010850694444444444,38.97569444444444,0)" xlink:href="#aE"/><use transform="matrix(0.010850694444444444,0,0,0.010850694444444444,52.10503472222222,0)" xlink:href="#Y"/><use transform="matrix(0.010850694444444444,0,0,0.010850694444444444,65.06076388888889,0)" xlink:href="#aq"/></g><g id="x"><use transform="matrix(0.008680555555555556,0,0,0.008680555555555556,0,0)" xlink:href="#ai"/><use transform="matrix(0.008680555555555556,0,0,0.008680555555555556,10.15625,0)" xlink:href="#aD"/><use transform="matrix(0.008680555555555556,0,0,0.008680555555555556,20.66840277777778,0)" xlink:href="#ac"/><use transform="matrix(0.008680555555555556,0,0,0.008680555555555556,27.638888888888893,0)" xlink:href="#aq"/></g><path d="M692-1560L212 224H46l480-1784h166" id="aF"/><g id="y"><use transform="matrix(0.008680555555555556,0,0,0.008680555555555556,0,0)" xlink:href="#as"/><use transform="matrix(0.008680555555555556,0,0,0.008680555555555556,10.512152777777779,0)" xlink:href="#Z"/><use transform="matrix(0.008680555555555556,0,0,0.008680555555555556,15.894097222222221,0)" xlink:href="#Z"/><use transform="matrix(0.008680555555555556,0,0,0.008680555555555556,21.710069444444443,0)" xlink:href="#ap"/><use transform="matrix(0.008680555555555556,0,0,0.008680555555555556,32.595486111111114,0)" xlink:href="#au"/><use transform="matrix(0.008680555555555556,0,0,0.008680555555555556,37.71701388888889,0)" xlink:href="#aF"/><use transform="matrix(0.008680555555555556,0,0,0.008680555555555556,44.12326388888889,0)" xlink:href="#aF"/><use transform="matrix(0.008680555555555556,0,0,0.008680555555555556,50.52951388888889,0)" xlink:href="#aq"/><use transform="matrix(0.008680555555555556,0,0,0.008680555555555556,54.83506944444445,0)" xlink:href="#ab"/><use transform="matrix(0.008680555555555556,0,0,0.008680555555555556,65.49479166666667,0)" xlink:href="#ai"/><use transform="matrix(0.008680555555555556,0,0,0.008680555555555556,75.82465277777779,0)" xlink:href="#ar"/><use transform="matrix(0.008680555555555556,0,0,0.008680555555555556,85.80729166666667,0)" xlink:href="#aq"/><use transform="matrix(0.008680555555555556,0,0,0.008680555555555556,90.11284722222223,0)" xlink:href="#as"/><use transform="matrix(0.008680555555555556,0,0,0.008680555555555556,100.625,0)" xlink:href="#ab"/><use transform="matrix(0.008680555555555556,0,0,0.008680555555555556,111.28472222222223,0)" xlink:href="#at"/><use transform="matrix(0.008680555555555556,0,0,0.008680555555555556,120.66840277777779,0)" xlink:href="#Z"/><use transform="matrix(0.008680555555555556,0,0,0.008680555555555556,126.48437500000003,0)" xlink:href="#au"/><use transform="matrix(0.008680555555555556,0,0,0.008680555555555556,131.6059027777778,0)" xlink:href="#av"/><use transform="matrix(0.008680555555555556,0,0,0.008680555555555556,142.60416666666669,0)" xlink:href="#aw"/></g><g id="z"><use transform="matrix(0.007595486111111112,0,0,0.007595486111111112,0,0)" xlink:href="#at"/><use transform="matrix(0.007595486111111112,0,0,0.007595486111111112,8.210720486111112,0)" xlink:href="#at"/><use transform="matrix(0.007595486111111112,0,0,0.007595486111111112,16.421440972222225,0)" xlink:href="#as"/></g><path d="M180 0v-1490h510c348 0 508 194 508 460 0 198-88 351-276 417L1256 0h-220L726-579c-117 2-238 0-356 1V0H180zm190-747h312c235 0 327-108 327-283 0-177-92-293-329-293H370v576" id="aG"/><g id="A"><use transform="matrix(0.007595486111111112,0,0,0.007595486111111112,0,0)" xlink:href="#ao"/><use transform="matrix(0.007595486111111112,0,0,0.007595486111111112,7.154947916666667,0)" xlink:href="#aG"/></g><g id="B"><use transform="matrix(0.007595486111111112,0,0,0.007595486111111112,0,0)" xlink:href="#av"/><use transform="matrix(0.007595486111111112,0,0,0.007595486111111112,9.623480902777779,0)" xlink:href="#aw"/><use transform="matrix(0.007595486111111112,0,0,0.007595486111111112,19.436848958333336,0)" xlink:href="#au"/><use transform="matrix(0.007595486111111112,0,0,0.007595486111111112,23.918185763888893,0)" xlink:href="#aq"/><use transform="matrix(0.007595486111111112,0,0,0.007595486111111112,27.685546875000004,0)" xlink:href="#ab"/><use transform="matrix(0.007595486111111112,0,0,0.007595486111111112,37.01280381944445,0)" xlink:href="#ai"/><use transform="matrix(0.007595486111111112,0,0,0.007595486111111112,46.05143229166667,0)" xlink:href="#ar"/><use transform="matrix(0.007595486111111112,0,0,0.007595486111111112,54.78624131944445,0)" xlink:href="#aq"/><use transform="matrix(0.007595486111111112,0,0,0.007595486111111112,58.553602430555564,0)" xlink:href="#as"/><use transform="matrix(0.007595486111111112,0,0,0.007595486111111112,67.75173611111111,0)" xlink:href="#ab"/><use transform="matrix(0.007595486111111112,0,0,0.007595486111111112,77.07899305555556,0)" xlink:href="#at"/><use transform="matrix(0.007595486111111112,0,0,0.007595486111111112,85.28971354166667,0)" xlink:href="#Z"/><use transform="matrix(0.007595486111111112,0,0,0.007595486111111112,90.37868923611111,0)" xlink:href="#au"/><use transform="matrix(0.007595486111111112,0,0,0.007595486111111112,94.86002604166667,0)" xlink:href="#av"/><use transform="matrix(0.007595486111111112,0,0,0.007595486111111112,104.48350694444446,0)" xlink:href="#aw"/></g><path d="M1044 395c-595 0-922-332-922-920 0-569 336-913 901-913 548 0 833 392 833 798 0 285-36 610-344 610-104 0-258-44-276-168h-8c-35 86-122 161-273 161-266 0-403-216-403-498 0-268 174-469 413-469 128 0 216 57 252 108h10v-84h158v659c0 80 45 150 131 150 146 0 181-145 181-471 0-331-218-652-680-652-458 0-728 289-728 774 0 492 266 770 762 770 159 0 323-57 382-77l43 140c-92 39-281 82-432 82zm-82-585c193 0 271-116 271-353 0-239-92-310-266-310-164 0-260 143-260 310 0 185 69 353 255 353" id="aH"/><path d="M370-1490V0H180v-1490h190" id="aI"/><path d="M934 0v166H0V0h934" id="aJ"/><path d="M784 20c-382 0-662-292-662-764 0-473 280-766 662-766s660 293 660 766c0 472-278 764-660 764zm0-176c266 0 475-207 475-588 0-383-209-590-475-590-268 0-477 208-477 590 0 380 209 588 477 588" id="aK"/><g id="C"><use transform="matrix(0.007595486111111112,0,0,0.007595486111111112,0,0)" xlink:href="#ar"/><use transform="matrix(0.007595486111111112,0,0,0.007595486111111112,8.734809027777779,0)" xlink:href="#aq"/><use transform="matrix(0.007595486111111112,0,0,0.007595486111111112,12.50217013888889,0)" xlink:href="#ah"/><use transform="matrix(0.007595486111111112,0,0,0.007595486111111112,16.26953125,0)" xlink:href="#ai"/><use transform="matrix(0.007595486111111112,0,0,0.007595486111111112,25.15625,0)" xlink:href="#Y"/><use transform="matrix(0.007595486111111112,0,0,0.007595486111111112,34.22526041666667,0)" xlink:href="#aH"/><use transform="matrix(0.007595486111111112,0,0,0.007595486111111112,49.24913194444445,0)" xlink:href="#aI"/><use transform="matrix(0.007595486111111112,0,0,0.007595486111111112,53.426649305555564,0)" xlink:href="#az"/><use transform="matrix(0.007595486111111112,0,0,0.007595486111111112,63.36154513888889,0)" xlink:href="#aJ"/><use transform="matrix(0.007595486111111112,0,0,0.007595486111111112,70.97981770833334,0)" xlink:href="#aB"/><use transform="matrix(0.007595486111111112,0,0,0.007595486111111112,82.54014756944446,0)" xlink:href="#aK"/><use transform="matrix(0.007595486111111112,0,0,0.007595486111111112,94.43467881944446,0)" xlink:href="#an"/><use transform="matrix(0.007595486111111112,0,0,0.007595486111111112,104.41514756944446,0)" xlink:href="#aC"/><use transform="matrix(0.007595486111111112,0,0,0.007595486111111112,113.57530381944446,0)" xlink:href="#aJ"/><use transform="matrix(0.007595486111111112,0,0,0.007595486111111112,120.66948784722223,0)" xlink:href="#ay"/></g></defs></g></svg>