<svg xmlns="http://www.w3.org/2000/svg" xmlns:xlink="http://www.w3.org/1999/xlink" xmlns:lucid="lucid" width="1277.8" height="708.91"><g transform="translate(36.799999999999955 -932.0911458333333)" lucid:page-tab-id="0_0"><path d="M-35.8 1030.5a6 6 0 0 1 6-6H1234a6 6 0 0 1 6 6V1634a6 6 0 0 1-6 6H-29.8a6 6 0 0 1-6-6z" stroke="#3a414a" stroke-width="2" fill="#fff"/><path d="M-35.8 938.1a6 6 0 0 1 6-6H185a6 6 0 0 1 6 6v68.4a6 6 0 0 1-6 6H-29.8a6 6 0 0 1-6-6z" fill="#3a414a"/><use xlink:href="#a" transform="matrix(1,0,0,1,-19.799999999999955,948.0911458333333) translate(0 39.05078125)"/><use xlink:href="#b" transform="matrix(1,0,0,1,-19.799999999999955,948.0911458333333) translate(178.53515625 39.05078125)"/><path d="M44.2 1160a6 6 0 0 1 6-6H534a6 6 0 0 1 6 6v374a6 6 0 0 1-6 6H50.2a6 6 0 0 1-6-6z" stroke="#00c2a8" stroke-width="2" fill="#dfe3e8"/><path d="M44.2 1110.5a6 6 0 0 1 6-6h87.68a6 6 0 0 1 6 6v25.5a6 6 0 0 1-6 6H50.2a6 6 0 0 1-6-6z" fill="#00c2a8"/><use xlink:href="#c" transform="matrix(1,0,0,1,52.200000000000045,1112.4895833333333) translate(0 17.46701388888889)"/><use xlink:href="#d" transform="matrix(1,0,0,1,52.200000000000045,1112.4895833333333) translate(76.44965277777779 17.46701388888889)"/><path d="M560 1160a6 6 0 0 1 6-6h588a6 6 0 0 1 6 6v378.7a6 6 0 0 1-6 6H566a6 6 0 0 1-6-6z" stroke="#fcce14" stroke-width="2" fill="#dfe3e8"/><path d="M560 1110.5a6 6 0 0 1 6-6h91.3a6 6 0 0 1 6 6v25.5a6 6 0 0 1-6 6H566a6 6 0 0 1-6-6z" fill="#fcce14"/><use xlink:href="#c" transform="matrix(1,0,0,1,568,1112.4895833333333) translate(0 17.46701388888889)"/><use xlink:href="#e" transform="matrix(1,0,0,1,568,1112.4895833333333) translate(76.44965277777779 17.46701388888889)"/><path d="M261.4 1234h62.8v24.14h-62.8zm32 24.14h30.8v109.48h-30.8zm-32 109.48h62.8v19.72h-31.6l-6-12.24h-25.2zm-136.2-107.78h166.2v106.25H125.2zm76 108.12H217v7.82h-15.8zm-69.4 9.7h154l13 26.34H124.2z" fill="#29aae1"/><path d="M153 1381.9h4.2v3.4H153zm7 0h4.2v3.4H160zm7 0h4.2v3.4H167zm7 0h4.2v3.4H174zm7 0h4.2v3.4H181zm7 0h4.2v3.4H188zm7 0h4.2v3.4H195zm7 0h4.2v3.4H202zm7 0h4.2v3.4H209zm7 0h4.2v3.4H216zm7 0h4.2v3.4H223zm7 0h4.2v3.4H230zm7 0h4.2v3.4H237zm7 0h4.2v3.4H244zm7 0h4.2v3.4H251zm6.8 0h4.2v3.4h-4.2zm-88.2 5.78h4.2v3.4h-4.2zm7.4 0h4.2v3.4H177zm7.4 0h4.2v3.4h-4.2zm7.4 0h4.2v3.4h-4.2zm7.4 0h4.2v3.4h-4.2zm7.4 0h4.2v3.4h-4.2zm7.4 0h4.2v3.4H214zm7.4 0h4.2v3.4h-4.2zm7.4 0h4.2v3.4h-4.2zm7.4 0h4.2v3.4h-4.2zm6.4 0h4.2v3.4h-4.2zm-59.2 9.52h55.2v5.27h-55.2zm-50.6-130.9h151.6v95.03H132.8zM304.6 1243a1.02 1.02 0 0 1 1.02-1h11.56a1.02 1.02 0 0 1 1.02 1 1.02 1.02 0 0 1-1.02 1.03h-11.56a1.02 1.02 0 0 1-1.02-1.02zm0 5.62a1.02 1.02 0 0 1 1.02-1.02h11.56a1.02 1.02 0 0 1 1.02 1.02 1.02 1.02 0 0 1-1.02 1.02h-11.56a1.02 1.02 0 0 1-1.02-1.02z" fill="#fff"/><use xlink:href="#f" transform="matrix(1,0,0,1,94.20000000000005,1404) translate(83.16840277777777 23.08376736111111)"/><use xlink:href="#g" transform="matrix(1,0,0,1,94.20000000000005,1404) translate(161.49956597222223 23.08376736111111)"/><path d="M933 1234h62.8v24.14H933zm32 24.14h30.8v109.48H965zm-32 109.48h62.8v19.72h-31.6l-6-12.24H933zm-136.2-107.78H963v106.25H796.8zm76 108.12h15.8v7.82h-15.8zm-69.4 9.7h154l13 26.34H795.8z" fill="#29aae1"/><path d="M824.6 1381.9h4.2v3.4h-4.2zm7 0h4.2v3.4h-4.2zm7 0h4.2v3.4h-4.2zm7 0h4.2v3.4h-4.2zm7 0h4.2v3.4h-4.2zm7 0h4.2v3.4h-4.2zm7 0h4.2v3.4h-4.2zm7 0h4.2v3.4h-4.2zm7 0h4.2v3.4h-4.2zm7 0h4.2v3.4h-4.2zm7 0h4.2v3.4h-4.2zm7 0h4.2v3.4h-4.2zm7 0h4.2v3.4h-4.2zm7 0h4.2v3.4h-4.2zm7 0h4.2v3.4h-4.2zm6.8 0h4.2v3.4h-4.2zm-88.2 5.78h4.2v3.4h-4.2zm7.4 0h4.2v3.4h-4.2zm7.4 0h4.2v3.4H856zm7.4 0h4.2v3.4h-4.2zm7.4 0h4.2v3.4h-4.2zm7.4 0h4.2v3.4h-4.2zm7.4 0h4.2v3.4h-4.2zm7.4 0h4.2v3.4H893zm7.4 0h4.2v3.4h-4.2zm7.4 0h4.2v3.4h-4.2zm6.4 0h4.2v3.4h-4.2zm-59.2 9.52h55.2v5.27H855zm-50.6-130.9H956v95.03H804.4zM976.2 1243a1.02 1.02 0 0 1 1.02-1h11.56a1.02 1.02 0 0 1 1.02 1 1.02 1.02 0 0 1-1.02 1.03h-11.56a1.02 1.02 0 0 1-1.02-1.02zm0 5.62a1.02 1.02 0 0 1 1.02-1.02h11.56a1.02 1.02 0 0 1 1.02 1.02 1.02 1.02 0 0 1-1.02 1.02h-11.56a1.02 1.02 0 0 1-1.02-1.02z" fill="#fff"/><use xlink:href="#f" transform="matrix(1,0,0,1,765.8,1404) translate(82.71809895833334 21.95095486111111)"/><use xlink:href="#h" transform="matrix(1,0,0,1,765.8,1404) translate(161.04926215277777 21.95095486111111)"/><use xlink:href="#i" transform="matrix(1,0,0,1,765.8,1404) translate(5.553385416666686 54.21657986111111)"/><use xlink:href="#j" transform="matrix(1,0,0,1,765.8,1404) translate(67.23958333333336 54.21657986111111)"/><use xlink:href="#k" transform="matrix(1,0,0,1,765.8,1404) translate(152.93836805555557 54.21657986111111)"/><use xlink:href="#l" transform="matrix(1,0,0,1,765.8,1404) translate(169.40972222222223 54.21657986111111)"/><use xlink:href="#m" transform="matrix(1,0,0,1,765.8,1404) translate(218.57421875 54.21657986111111)"/><path d="M597.2 1234H660v24.14h-62.8zm32 24.14H660v109.48h-30.8zm-32 109.48H660v19.72h-31.6l-6-12.24h-25.2zM461 1259.84h166.2v106.25H461zm76 108.12h15.8v7.82H537zm-69.4 9.7h154l13 26.34H460z" fill="#29aae1"/><path d="M488.8 1381.9h4.2v3.4h-4.2zm7 0h4.2v3.4h-4.2zm7 0h4.2v3.4h-4.2zm7 0h4.2v3.4h-4.2zm7 0h4.2v3.4h-4.2zm7 0h4.2v3.4h-4.2zm7 0h4.2v3.4h-4.2zm7 0h4.2v3.4h-4.2zm7 0h4.2v3.4h-4.2zm7 0h4.2v3.4h-4.2zm7 0h4.2v3.4h-4.2zm7 0h4.2v3.4h-4.2zm7 0h4.2v3.4h-4.2zm7 0h4.2v3.4h-4.2zm7 0h4.2v3.4h-4.2zm6.8 0h4.2v3.4h-4.2zm-88.2 5.78h4.2v3.4h-4.2zm7.4 0h4.2v3.4h-4.2zm7.4 0h4.2v3.4h-4.2zm7.4 0h4.2v3.4h-4.2zm7.4 0h4.2v3.4H535zm7.4 0h4.2v3.4h-4.2zm7.4 0h4.2v3.4h-4.2zm7.4 0h4.2v3.4h-4.2zm7.4 0h4.2v3.4h-4.2zm7.4 0h4.2v3.4H572zm6.4 0h4.2v3.4h-4.2zm-59.2 9.52h55.2v5.27h-55.2zm-50.6-130.9h151.6v95.03H468.6zM640.4 1243a1.02 1.02 0 0 1 1.02-1h11.56a1.02 1.02 0 0 1 1.02 1 1.02 1.02 0 0 1-1.02 1.03h-11.56a1.02 1.02 0 0 1-1.02-1.02zm0 5.62a1.02 1.02 0 0 1 1.02-1.02h11.56a1.02 1.02 0 0 1 1.02 1.02 1.02 1.02 0 0 1-1.02 1.02h-11.56a1.02 1.02 0 0 1-1.02-1.02z" fill="#fff"/><g><use xlink:href="#f" transform="matrix(1,0,0,1,430,1404) translate(83.564453125 23.08376736111111)"/><use xlink:href="#n" transform="matrix(1,0,0,1,430,1404) translate(161.89561631944446 23.08376736111111)"/></g><defs><path fill="#fff" d="M657 26c-323 0-524-166-541-416h195c15 169 171 246 346 246 202 0 356-106 356-265 5-203-294-238-475-293-239-73-380-191-380-389 0-252 224-419 512-419 294 0 499 171 508 396H992c-17-145-151-228-328-228-193 0-321 102-321 242 0 156 175 211 284 241l149 41c160 44 422 134 422 412 0 244-197 432-541 432" id="o"/><path fill="#fff" d="M613 24c-304 0-509-231-509-576 0-350 205-580 509-580 216 0 392 114 453 309l-173 49c-33-115-133-197-280-197-223 0-326 196-326 419 0 220 103 415 326 415 150 0 252-85 285-206l172 49C1010-95 832 24 613 24" id="p"/><path fill="#fff" d="M628 24c-324 0-524-230-524-574 0-343 198-582 503-582 237 0 487 146 487 559v75H286c9 234 145 362 343 362 132 0 231-58 273-172l174 48C1024-91 857 24 628 24zM287-650h624c-17-190-120-322-304-322-192 0-309 151-320 322" id="q"/><path fill="#fff" d="M338-670V0H158v-1118h173l1 207c72-158 192-221 342-221 226 0 378 139 378 422V0H872v-695c0-172-96-275-252-275-161 0-282 109-282 300" id="r"/><path fill="#fff" d="M471 26C259 26 90-98 90-318c0-256 228-303 435-329 202-27 287-16 287-108 0-139-79-219-234-219-161 0-248 86-283 164l-173-57c86-203 278-265 451-265 150 0 419 46 419 395V0H815v-152h-12C765-73 660 26 471 26zm31-159c199 0 310-134 310-271v-155c-30 35-226 55-295 64-131 17-246 59-246 186 0 116 97 176 231 176" id="s"/><path fill="#fff" d="M158 0v-1118h174v172h12c41-113 157-188 290-188 26 0 70 2 91 3v181c-11-2-60-10-108-10-161 0-279 109-279 260V0H158" id="t"/><path fill="#fff" d="M158 0v-1118h180V0H158zm91-1301c-68 0-125-53-125-119s57-119 125-119c69 0 126 53 126 119s-57 119-126 119" id="u"/><path fill="#fff" d="M613 24c-304 0-509-231-509-576 0-350 205-580 509-580 305 0 511 230 511 580 0 345-206 576-511 576zm0-161c226 0 329-195 329-415 0-222-103-419-329-419-223 0-326 196-326 419 0 220 103 415 326 415" id="v"/><g id="a"><use transform="matrix(0.01953125,0,0,0.01953125,0,0)" xlink:href="#o"/><use transform="matrix(0.01953125,0,0,0.01953125,25.6640625,0)" xlink:href="#p"/><use transform="matrix(0.01953125,0,0,0.01953125,48.515625,0)" xlink:href="#q"/><use transform="matrix(0.01953125,0,0,0.01953125,71.8359375,0)" xlink:href="#r"/><use transform="matrix(0.01953125,0,0,0.01953125,95.46875,0)" xlink:href="#s"/><use transform="matrix(0.01953125,0,0,0.01953125,117.9296875,0)" xlink:href="#t"/><use transform="matrix(0.01953125,0,0,0.01953125,133.61328125,0)" xlink:href="#u"/><use transform="matrix(0.01953125,0,0,0.01953125,143.30078125,0)" xlink:href="#v"/></g><path fill="#fff" d="M653-1490V0H466v-1314h-10L96-1047v-204l324-239h233" id="w"/><use transform="matrix(0.01953125,0,0,0.01953125,0,0)" xlink:href="#w" id="b"/><path d="M180 0v-1490h224l606 953c40 63 108 177 176 312-27-437-7-821-13-1265h190V0h-226C860-448 622-778 356-1262c27 476 11 792 15 1262H180" id="x"/><path d="M628 24c-324 0-524-230-524-574 0-343 198-582 503-582 237 0 487 146 487 559v75H286c9 234 145 362 343 362 132 0 231-58 273-172l174 48C1024-91 857 24 628 24zM287-650h624c-17-190-120-322-304-322-192 0-309 151-320 322" id="y"/><path d="M598-1118v154H368v674c0 100 37 144 132 144 23 0 62-6 92-12L629-6c-37 13-88 20-134 20-193 0-307-107-307-290v-688H20v-154h168v-266h180v266h230" id="z"/><path d="M409 0L70-1118h191c89 329 165 560 243 925 75-353 154-601 240-925h192c85 325 161 564 235 922 77-354 157-598 244-922h191L1267 0h-179c-86-307-176-590-250-913C763-588 675-308 588 0H409" id="A"/><path d="M613 24c-304 0-509-231-509-576 0-350 205-580 509-580 305 0 511 230 511 580 0 345-206 576-511 576zm0-161c226 0 329-195 329-415 0-222-103-419-329-419-223 0-326 196-326 419 0 220 103 415 326 415" id="B"/><path d="M158 0v-1118h174v172h12c41-113 157-188 290-188 26 0 70 2 91 3v181c-11-2-60-10-108-10-161 0-279 109-279 260V0H158" id="C"/><path d="M158 0v-1490h180v865h22l478-493h223L593-638 1096 0H865L456-523 338-412V0H158" id="D"/><g id="c"><use transform="matrix(0.008680555555555556,0,0,0.008680555555555556,0,0)" xlink:href="#x"/><use transform="matrix(0.008680555555555556,0,0,0.008680555555555556,13.394097222222223,0)" xlink:href="#y"/><use transform="matrix(0.008680555555555556,0,0,0.008680555555555556,23.758680555555557,0)" xlink:href="#z"/><use transform="matrix(0.008680555555555556,0,0,0.008680555555555556,29.835069444444446,0)" xlink:href="#A"/><use transform="matrix(0.008680555555555556,0,0,0.008680555555555556,44.0625,0)" xlink:href="#B"/><use transform="matrix(0.008680555555555556,0,0,0.008680555555555556,54.72222222222222,0)" xlink:href="#C"/><use transform="matrix(0.008680555555555556,0,0,0.008680555555555556,61.692708333333336,0)" xlink:href="#D"/></g><path d="M653-1490V0H466v-1314h-10L96-1047v-204l324-239h233" id="E"/><use transform="matrix(0.008680555555555556,0,0,0.008680555555555556,0,0)" xlink:href="#E" id="d"/><path d="M154 0v-137l495-537c165-179 249-281 249-418 0-156-121-253-280-253-170 0-278 110-278 278H158c0-264 200-443 465-443 266 0 455 183 455 416 0 161-73 288-336 568L416-179v12h687V0H154" id="F"/><use transform="matrix(0.008680555555555556,0,0,0.008680555555555556,0,0)" xlink:href="#F" id="e"/><path d="M645 0H180v-1490h484c435 0 692 280 692 742 0 466-257 748-711 748zM370-168h263c363 0 539-218 539-580 0-358-176-574-521-574H370v1154" id="G"/><path d="M481 0L54-1118h197c107 314 236 620 325 951 87-331 217-637 324-951h197L670 0H481" id="H"/><path d="M158 0v-1118h180V0H158zm91-1301c-68 0-125-53-125-119s57-119 125-119c69 0 126 53 126 119s-57 119-126 119" id="I"/><path d="M613 24c-304 0-509-231-509-576 0-350 205-580 509-580 216 0 392 114 453 309l-173 49c-33-115-133-197-280-197-223 0-326 196-326 419 0 220 103 415 326 415 150 0 252-85 285-206l172 49C1010-95 832 24 613 24" id="J"/><g id="f"><use transform="matrix(0.010850694444444444,0,0,0.010850694444444444,0,0)" xlink:href="#G"/><use transform="matrix(0.010850694444444444,0,0,0.010850694444444444,16.03732638888889,0)" xlink:href="#y"/><use transform="matrix(0.010850694444444444,0,0,0.010850694444444444,28.559027777777775,0)" xlink:href="#H"/><use transform="matrix(0.010850694444444444,0,0,0.010850694444444444,41.048177083333336,0)" xlink:href="#I"/><use transform="matrix(0.010850694444444444,0,0,0.010850694444444444,46.43012152777778,0)" xlink:href="#J"/><use transform="matrix(0.010850694444444444,0,0,0.010850694444444444,59.12543402777778,0)" xlink:href="#y"/></g><path d="M52 0l541-1490h220L1361 0h-200l-149-416H398L254 0H52zm404-582h497c-103-290-145-390-251-756-108 377-145 460-246 756" id="K"/><use transform="matrix(0.010850694444444444,0,0,0.010850694444444444,0,0)" xlink:href="#K" id="g"/><path d="M783 20c-382 0-661-292-661-764 0-473 279-766 661-766 302 0 548 182 601 489h-190c-42-204-217-313-411-313-268 0-476 208-476 590 0 381 209 588 476 588 195 0 369-110 411-313h190c-52 303-296 489-601 489" id="L"/><use transform="matrix(0.010850694444444444,0,0,0.010850694444444444,0,0)" xlink:href="#L" id="h"/><path d="M218-607c0-325 108-727 258-974h175c-155 315-250 682-250 974 0 265 78 531 250 886H476C306-10 218-315 218-607" id="M"/><path d="M458 0L52-1490h194c108 439 233 855 324 1313 92-459 221-873 331-1313h216c110 438 234 854 330 1307 92-455 216-869 323-1307h196L1558 0h-221l-256-944c-26-95-50-200-73-331-22 122-44 223-73 331L680 0H458" id="N"/><path d="M677 24c-213 0-288-135-325-197h-20V0H158v-1490h180v551h14c37-59 106-193 324-193 279 0 474 222 474 576 0 356-194 580-473 580zm-27-161c209 0 317-186 317-421 0-232-105-413-317-413-206 0-314 166-314 413 0 249 111 421 314 421" id="O"/><g id="i"><use transform="matrix(0.010850694444444444,0,0,0.010850694444444444,0,0)" xlink:href="#M"/><use transform="matrix(0.010850694444444444,0,0,0.010850694444444444,8.10546875,0)" xlink:href="#N"/><use transform="matrix(0.010850694444444444,0,0,0.010850694444444444,28.873697916666664,0)" xlink:href="#y"/><use transform="matrix(0.010850694444444444,0,0,0.010850694444444444,41.829427083333336,0)" xlink:href="#O"/></g><path d="M657 26c-323 0-524-166-541-416h195c15 169 171 246 346 246 202 0 356-106 356-265 5-203-294-238-475-293-239-73-380-191-380-389 0-252 224-419 512-419 294 0 499 171 508 396H992c-17-145-151-228-328-228-193 0-321 102-321 242 0 156 175 211 284 241l149 41c160 44 422 134 422 412 0 244-197 432-541 432" id="P"/><g id="j"><use transform="matrix(0.010850694444444444,0,0,0.010850694444444444,0,0)" xlink:href="#P"/><use transform="matrix(0.010850694444444444,0,0,0.010850694444444444,14.2578125,0)" xlink:href="#y"/><use transform="matrix(0.010850694444444444,0,0,0.010850694444444444,27.213541666666664,0)" xlink:href="#C"/><use transform="matrix(0.010850694444444444,0,0,0.010850694444444444,35.92664930555555,0)" xlink:href="#H"/><use transform="matrix(0.010850694444444444,0,0,0.010850694444444444,48.41579861111111,0)" xlink:href="#I"/><use transform="matrix(0.010850694444444444,0,0,0.010850694444444444,53.79774305555556,0)" xlink:href="#J"/><use transform="matrix(0.010850694444444444,0,0,0.010850694444444444,66.49305555555554,0)" xlink:href="#y"/></g><path d="M798-719v166H144v-166h654" id="Q"/><use transform="matrix(0.010850694444444444,0,0,0.010850694444444444,0,0)" xlink:href="#Q" id="k"/><path d="M158 418v-1536h174v179h20c37-59 106-193 324-193 279 0 474 222 474 576 0 356-194 580-473 580-213 0-288-135-325-197h-14v591H158zm492-555c209 0 317-186 317-421 0-232-105-413-317-413-206 0-314 166-314 413 0 249 111 421 314 421" id="R"/><g id="l"><use transform="matrix(0.010850694444444444,0,0,0.010850694444444444,0,0)" xlink:href="#R"/><use transform="matrix(0.010850694444444444,0,0,0.010850694444444444,13.606770833333332,0)" xlink:href="#B"/><use transform="matrix(0.010850694444444444,0,0,0.010850694444444444,26.931423611111104,0)" xlink:href="#C"/><use transform="matrix(0.010850694444444444,0,0,0.010850694444444444,35.64453124999999,0)" xlink:href="#z"/></g><path d="M633 20c-303 0-511-173-511-416 0-188 124-348 291-378v-8c-145-37-237-174-237-332 0-227 192-396 457-396 261 0 456 169 456 396 0 158-94 295-235 332v8c162 30 291 190 291 378 0 243-212 416-512 416zm0-165c197 0 322-103 322-261 0-165-138-283-322-283-188 0-324 118-324 283 0 158 123 261 324 261zm0-703c157 0 272-101 272-252 0-149-110-246-272-246-165 0-273 97-273 246 0 151 112 252 273 252" id="S"/><path d="M646 20c-332 0-524-278-524-764 0-483 194-766 524-766s524 283 524 766c0 485-191 764-524 764zm0-166c218 0 341-220 341-598 0-380-123-601-341-601s-341 222-341 601c0 378 123 598 341 598" id="T"/><path d="M96 279C273-86 346-350 346-607c0-292-95-659-250-974h175c150 246 258 650 258 974 0 297-91 602-258 886H96" id="U"/><g id="m"><use transform="matrix(0.010850694444444444,0,0,0.010850694444444444,0,0)" xlink:href="#S"/><use transform="matrix(0.010850694444444444,0,0,0.010850694444444444,13.74782986111111,0)" xlink:href="#T"/><use transform="matrix(0.010850694444444444,0,0,0.010850694444444444,27.766927083333332,0)" xlink:href="#U"/></g><path d="M180 0v-1490h528c311 0 458 177 458 395 0 191-114 278-244 313v14c139 9 302 137 302 371 0 225-148 397-499 397H180zm190-168h350c232 0 321-102 321-231 0-149-120-277-311-277H370v508zm0-668h328c160 0 286-101 286-255 0-129-87-231-280-231H370v486" id="V"/><use transform="matrix(0.010850694444444444,0,0,0.010850694444444444,0,0)" xlink:href="#V" id="n"/></defs></g></svg>