<svg xmlns="http://www.w3.org/2000/svg" xmlns:xlink="http://www.w3.org/1999/xlink" xmlns:lucid="lucid" width="1182" height="817"><g transform="translate(298 -4043)" lucid:page-tab-id="0_0"><path d="M-237.9 4166a6 6 0 0 1 6-6H814a6 6 0 0 1 6 6v648a6 6 0 0 1-6 6H-231.9a6 6 0 0 1-6-6z" stroke="#3a414a" stroke-width="2" fill="#fff"/><path d="M-237.9 4073.6a6 6 0 0 1 6-6h363.53a6 6 0 0 1 6 6v68.4a6 6 0 0 1-6 6H-231.9a6 6 0 0 1-6-6z" fill="#3a414a"/><use xlink:href="#a" transform="matrix(1,0,0,1,-221.9000000000001,4083.6015625) translate(0 39.05078125)"/><use xlink:href="#b" transform="matrix(1,0,0,1,-221.9000000000001,4083.6015625) translate(178.53515625 39.05078125)"/><use xlink:href="#c" transform="matrix(1,0,0,1,-221.9000000000001,4083.6015625) translate(214.4921875 39.05078125)"/><path d="M-157.9 4266a6 6 0 0 1 6-6h877.5a6 6 0 0 1 6 6v488a6 6 0 0 1-6 6h-877.5a6 6 0 0 1-6-6z" stroke="#00c2a8" stroke-width="2" fill="#dfe3e8"/><path d="M-157.9 4216.5a6 6 0 0 1 6-6h87.68a6 6 0 0 1 6 6v25.5a6 6 0 0 1-6 6h-87.68a6 6 0 0 1-6-6z" fill="#00c2a8"/><use xlink:href="#d" transform="matrix(1,0,0,1,-149.9000000000001,4218.489583333333) translate(0 17.46701388888889)"/><use xlink:href="#e" transform="matrix(1,0,0,1,-149.9000000000001,4218.489583333333) translate(76.44965277777779 17.46701388888889)"/><path d="M577.2 4340H640v24.14h-62.8zm32 24.14H640v109.48h-30.8zm-32 109.48H640v19.72h-31.6l-6-12.24h-25.2zM441 4365.84h166.2v106.25H441zm76 108.12h15.8v7.82H517zm-69.4 9.7h154l13 26.34H440z" fill="#29aae1"/><path d="M468.8 4487.9h4.2v3.4h-4.2zm7 0h4.2v3.4h-4.2zm7 0h4.2v3.4h-4.2zm7 0h4.2v3.4h-4.2zm7 0h4.2v3.4h-4.2zm7 0h4.2v3.4h-4.2zm7 0h4.2v3.4h-4.2zm7 0h4.2v3.4h-4.2zm7 0h4.2v3.4h-4.2zm7 0h4.2v3.4h-4.2zm7 0h4.2v3.4h-4.2zm7 0h4.2v3.4h-4.2zm7 0h4.2v3.4h-4.2zm7 0h4.2v3.4h-4.2zm7 0h4.2v3.4h-4.2zm6.8 0h4.2v3.4h-4.2zm-88.2 5.78h4.2v3.4h-4.2zm7.4 0h4.2v3.4h-4.2zm7.4 0h4.2v3.4h-4.2zm7.4 0h4.2v3.4h-4.2zm7.4 0h4.2v3.4H515zm7.4 0h4.2v3.4h-4.2zm7.4 0h4.2v3.4h-4.2zm7.4 0h4.2v3.4h-4.2zm7.4 0h4.2v3.4h-4.2zm7.4 0h4.2v3.4H552zm6.4 0h4.2v3.4h-4.2zm-59.2 9.52h55.2v5.27h-55.2zm-50.6-130.9h151.6v95.03H448.6zM620.4 4349a1.02 1.02 0 0 1 1.02-1h11.56a1.02 1.02 0 0 1 1.02 1 1.02 1.02 0 0 1-1.02 1.03h-11.56a1.02 1.02 0 0 1-1.02-1.02zm0 5.62a1.02 1.02 0 0 1 1.02-1.02h11.56a1.02 1.02 0 0 1 1.02 1.02 1.02 1.02 0 0 1-1.02 1.02h-11.56a1.02 1.02 0 0 1-1.02-1.02z" fill="#fff"/><use xlink:href="#f" transform="matrix(1,0,0,1,410,4510) translate(83.564453125 21.818142361111114)"/><use xlink:href="#g" transform="matrix(1,0,0,1,410,4510) translate(161.89561631944446 21.818142361111114)"/><use xlink:href="#h" transform="matrix(1,0,0,1,410,4510) translate(36.73828125 54.083767361111114)"/><use xlink:href="#i" transform="matrix(1,0,0,1,410,4510) translate(134.61154513888889 54.083767361111114)"/><use xlink:href="#j" transform="matrix(1,0,0,1,410,4510) translate(45.749782986111114 86.34939236111111)"/><use xlink:href="#k" transform="matrix(1,0,0,1,410,4510) translate(131.904296875 86.34939236111111)"/><use xlink:href="#l" transform="matrix(1,0,0,1,410,4510) translate(156.66558159722223 86.34939236111111)"/><path d="M70.9 4345h62.8v24.14H70.9zm32 24.14h30.8v109.48h-30.8zm-32 109.48h62.8v19.72h-31.6l-6-12.24H70.9zm-136.2-107.78h166.2v106.25H-65.3zm76 108.12h15.8v7.82H10.7zm-69.4 9.7h154l13 26.34H-66.3z" fill="#29aae1"/><path d="M-37.5 4492.9h4.2v3.4h-4.2zm7 0h4.2v3.4h-4.2zm7 0h4.2v3.4h-4.2zm7 0h4.2v3.4h-4.2zm7 0h4.2v3.4h-4.2zm7 0h4.2v3.4h-4.2zm7 0h4.2v3.4H4.5zm7 0h4.2v3.4h-4.2zm7 0h4.2v3.4h-4.2zm7 0h4.2v3.4h-4.2zm7 0h4.2v3.4h-4.2zm7 0h4.2v3.4h-4.2zm7 0h4.2v3.4h-4.2zm7 0h4.2v3.4h-4.2zm7 0h4.2v3.4h-4.2zm6.8 0h4.2v3.4h-4.2zm-88.2 5.78h4.2v3.4h-4.2zm7.4 0h4.2v3.4h-4.2zm7.4 0h4.2v3.4h-4.2zm7.4 0h4.2v3.4H1.3zm7.4 0h4.2v3.4H8.7zm7.4 0h4.2v3.4h-4.2zm7.4 0h4.2v3.4h-4.2zm7.4 0h4.2v3.4h-4.2zm7.4 0h4.2v3.4h-4.2zm7.4 0h4.2v3.4h-4.2zm6.4 0h4.2v3.4h-4.2zm-59.2 9.52h55.2v5.27H-7.1zm-50.6-130.9H93.9v95.03H-57.7zM114.1 4354a1.02 1.02 0 0 1 1.02-1h11.56a1.02 1.02 0 0 1 1.02 1 1.02 1.02 0 0 1-1.02 1.03h-11.56a1.02 1.02 0 0 1-1.02-1.02zm0 5.62a1.02 1.02 0 0 1 1.02-1.02h11.56a1.02 1.02 0 0 1 1.02 1.02 1.02 1.02 0 0 1-1.02 1.02h-11.56a1.02 1.02 0 0 1-1.02-1.02z" fill="#fff"/><use xlink:href="#f" transform="matrix(1,0,0,1,-96.30000000000018,4515) translate(83.16840277777777 21.95095486111111)"/><use xlink:href="#m" transform="matrix(1,0,0,1,-96.30000000000018,4515) translate(161.49956597222223 21.95095486111111)"/><use xlink:href="#n" transform="matrix(1,0,0,1,-96.30000000000018,4515) translate(130 54.21657986111111)"/><path d="M540 4386a6 6 0 0 1 6-6h48a6 6 0 0 1 6 6v28a6 6 0 0 1-6 6h-48a6 6 0 0 1-6-6z" stroke="#000" stroke-width="2" fill="#dfe3e8"/><use xlink:href="#o" transform="matrix(1,0,0,1,545,4385) translate(1.7805989583333357 20.416666666666668)"/><use xlink:href="#p" transform="matrix(1,0,0,1,545,4385) translate(31.559244791666668 20.416666666666668)"/><path d="M133.7 4406a6 6 0 0 1 6-6H434a6 6 0 0 1 6 6v48a6 6 0 0 1-6 6H139.7a6 6 0 0 1-6-6z" stroke="#000" stroke-width="2" fill="#fcfcca"/><use xlink:href="#q" transform="matrix(1,0,0,1,138.69999999999987,4405) translate(73.91232638888889 34.27777777777778)"/><use xlink:href="#r" transform="matrix(1,0,0,1,138.69999999999987,4405) translate(101.36458333333333 34.27777777777778)"/><use xlink:href="#s" transform="matrix(1,0,0,1,138.69999999999987,4405) translate(152.64496527777777 34.27777777777778)"/><path d="M73.7 4413.25a6 6 0 0 1 6-6h48a6 6 0 0 1 6 6v33.5a6 6 0 0 1-6 6h-48a6 6 0 0 1-6-6z" stroke="#000" stroke-width="2" fill="#dfe3e8"/><use xlink:href="#t" transform="matrix(1,0,0,1,78.69999999999982,4412.25390625) translate(11.985677083333334 15.166666666666668)"/><use xlink:href="#u" transform="matrix(1,0,0,1,78.69999999999982,4412.25390625) translate(8.528645833333332 34.52604166666667)"/><path d="M-120 4626a6 6 0 0 1 6-6h308a6 6 0 0 1 6 6v28a6 6 0 0 1-6 6h-308a6 6 0 0 1-6-6z" stroke="#000" stroke-width="2" fill="#fff"/><use xlink:href="#v" transform="matrix(1,0,0,1,-115,4625) translate(6.25 20.97222222222222)"/><use xlink:href="#w" transform="matrix(1,0,0,1,-115,4625) translate(112.98611111111111 20.97222222222222)"/><use xlink:href="#x" transform="matrix(1,0,0,1,-115,4625) translate(149.93055555555557 20.97222222222222)"/><path d="M450 4626a6 6 0 0 1 6-6h168a6 6 0 0 1 6 6v28a6 6 0 0 1-6 6H456a6 6 0 0 1-6-6z" stroke="#000" stroke-width="2" fill="#fff"/><use xlink:href="#y" transform="matrix(1,0,0,1,455,4625) translate(3.9903428819444287 20.694444444444446)"/><use xlink:href="#z" transform="matrix(1,0,0,1,455,4625) translate(33.984917534722214 20.694444444444446)"/><use xlink:href="#A" transform="matrix(1,0,0,1,455,4625) translate(56.7409939236111 20.694444444444446)"/><use xlink:href="#B" transform="matrix(1,0,0,1,455,4625) translate(99.54915364583333 20.694444444444446)"/><path d="M540 4426a6 6 0 0 1 6-6h48a6 6 0 0 1 6 6v33.5a6 6 0 0 1-6 6h-48a6 6 0 0 1-6-6z" stroke="#000" stroke-width="2" fill="#dfe3e8"/><g><use xlink:href="#t" transform="matrix(1,0,0,1,545,4425) translate(11.985677083333334 15.166666666666668)"/><use xlink:href="#C" transform="matrix(1,0,0,1,545,4425) translate(8.424479166666664 34.52604166666667)"/></g><path d="M440 4413.25a6 6 0 0 1 6-6h48a6 6 0 0 1 6 6v33.5a6 6 0 0 1-6 6h-48a6 6 0 0 1-6-6z" stroke="#000" stroke-width="2" fill="#dfe3e8"/><g><use xlink:href="#t" transform="matrix(1,0,0,1,444.99999999999994,4412.25390625) translate(11.985677083333334 15.166666666666668)"/><use xlink:href="#u" transform="matrix(1,0,0,1,444.99999999999994,4412.25390625) translate(8.528645833333332 34.52604166666667)"/></g><path d="M502.5 4430h1.5a6 6 0 0 0 6-6v-18a6 6 0 0 1 6-6h2.38" stroke="#3a414a" stroke-width="3" fill="none"/><path d="M502.54 4431.48H501v-2.95h1.54z" stroke="#3a414a" stroke-width=".05" fill="#3a414a"/><path d="M534.15 4400l-14.27 4.64v-9.28z" stroke="#3a414a" stroke-width="3" fill="#3a414a"/><path d="M502.5 4430h1.5a6 6 0 0 1 6 6v.75a6 6 0 0 0 6 6h2.38" stroke="#3a414a" stroke-width="3" fill="none"/><path d="M502.54 4431.48H501v-2.95h1.54z" stroke="#3a414a" stroke-width=".05" fill="#3a414a"/><path d="M534.15 4442.75l-14.27 4.63v-9.27z" stroke="#3a414a" stroke-width="3" fill="#3a414a"/><path d="M365 4686a6 6 0 0 1 6-6h338a6 6 0 0 1 6 6v28a6 6 0 0 1-6 6H371a6 6 0 0 1-6-6z" stroke="#000" stroke-width="2" fill="#fff"/><g><use xlink:href="#y" transform="matrix(1,0,0,1,370,4685) translate(0.19911024305554292 20.881944444444446)"/><use xlink:href="#D" transform="matrix(1,0,0,1,370,4685) translate(30.193684895833325 20.881944444444446)"/><use xlink:href="#E" transform="matrix(1,0,0,1,370,4685) translate(51.734483506944436 20.881944444444446)"/><use xlink:href="#F" transform="matrix(1,0,0,1,370,4685) translate(208.3989800347222 20.881944444444446)"/></g><path d="M105.38 4594.1l-.1 1.23-.3 1.3-.52 1.22-.7 1.14-.86 1-1 .86-1.15.7-1.23.5-1.3.32-1.22.1H46.1l-.65.05-.54.13-.5.2-.47.3-.42.35-.35.43-.28.47-.2.5-.14.55-.05.65v10.4h-4.95v-10.6l.1-1.23.3-1.3.5-1.22.7-1.14.87-1 1-.86 1.15-.7 1.23-.5 1.3-.32 1.22-.1h50.9l.65-.05.54-.13.5-.2.47-.3.42-.35.35-.43.28-.47.22-.5.12-.55.05-.65v-114.64h4.95z" stroke="#3a414a" stroke-width=".05" fill="#3a414a"/><path d="M42.48 4619h-4.95v-2.56h4.95z" fill="#3a414a"/><path stroke="#3a414a" stroke-width=".05" fill="#3a414a"/><path d="M107.53 4476.76h-9.27l4.64-14.27z" fill="#3a414a"/><path d="M110.94 4479.23H94.86l8.04-24.75zm-9.27-4.95h2.46l-1.23-3.78z" stroke="#3a414a" stroke-width=".05" fill="#3a414a"/><defs><path fill="#fff" d="M657 26c-323 0-524-166-541-416h195c15 169 171 246 346 246 202 0 356-106 356-265 5-203-294-238-475-293-239-73-380-191-380-389 0-252 224-419 512-419 294 0 499 171 508 396H992c-17-145-151-228-328-228-193 0-321 102-321 242 0 156 175 211 284 241l149 41c160 44 422 134 422 412 0 244-197 432-541 432" id="G"/><path fill="#fff" d="M613 24c-304 0-509-231-509-576 0-350 205-580 509-580 216 0 392 114 453 309l-173 49c-33-115-133-197-280-197-223 0-326 196-326 419 0 220 103 415 326 415 150 0 252-85 285-206l172 49C1010-95 832 24 613 24" id="H"/><path fill="#fff" d="M628 24c-324 0-524-230-524-574 0-343 198-582 503-582 237 0 487 146 487 559v75H286c9 234 145 362 343 362 132 0 231-58 273-172l174 48C1024-91 857 24 628 24zM287-650h624c-17-190-120-322-304-322-192 0-309 151-320 322" id="I"/><path fill="#fff" d="M338-670V0H158v-1118h173l1 207c72-158 192-221 342-221 226 0 378 139 378 422V0H872v-695c0-172-96-275-252-275-161 0-282 109-282 300" id="J"/><path fill="#fff" d="M471 26C259 26 90-98 90-318c0-256 228-303 435-329 202-27 287-16 287-108 0-139-79-219-234-219-161 0-248 86-283 164l-173-57c86-203 278-265 451-265 150 0 419 46 419 395V0H815v-152h-12C765-73 660 26 471 26zm31-159c199 0 310-134 310-271v-155c-30 35-226 55-295 64-131 17-246 59-246 186 0 116 97 176 231 176" id="K"/><path fill="#fff" d="M158 0v-1118h174v172h12c41-113 157-188 290-188 26 0 70 2 91 3v181c-11-2-60-10-108-10-161 0-279 109-279 260V0H158" id="L"/><path fill="#fff" d="M158 0v-1118h180V0H158zm91-1301c-68 0-125-53-125-119s57-119 125-119c69 0 126 53 126 119s-57 119-126 119" id="M"/><path fill="#fff" d="M613 24c-304 0-509-231-509-576 0-350 205-580 509-580 305 0 511 230 511 580 0 345-206 576-511 576zm0-161c226 0 329-195 329-415 0-222-103-419-329-419-223 0-326 196-326 419 0 220 103 415 326 415" id="N"/><g id="a"><use transform="matrix(0.01953125,0,0,0.01953125,0,0)" xlink:href="#G"/><use transform="matrix(0.01953125,0,0,0.01953125,25.6640625,0)" xlink:href="#H"/><use transform="matrix(0.01953125,0,0,0.01953125,48.515625,0)" xlink:href="#I"/><use transform="matrix(0.01953125,0,0,0.01953125,71.8359375,0)" xlink:href="#J"/><use transform="matrix(0.01953125,0,0,0.01953125,95.46875,0)" xlink:href="#K"/><use transform="matrix(0.01953125,0,0,0.01953125,117.9296875,0)" xlink:href="#L"/><use transform="matrix(0.01953125,0,0,0.01953125,133.61328125,0)" xlink:href="#M"/><use transform="matrix(0.01953125,0,0,0.01953125,143.30078125,0)" xlink:href="#N"/></g><path fill="#fff" d="M635 20c-292 0-500-160-510-396h192c11 142 145 229 315 229 187 0 323-105 323-260 0-161-125-274-346-274H488v-165h121c174 0 294-100 294-254 0-148-104-245-266-245-152 0-291 85-297 230H157c8-234 222-395 484-395 278 0 448 188 448 400 0 168-95 291-247 336v12c190 31 301 169 301 357 0 244-216 425-508 425" id="O"/><use transform="matrix(0.01953125,0,0,0.01953125,0,0)" xlink:href="#O" id="b"/><path fill="#fff" d="M338-1490V0H158v-1490h180" id="P"/><path fill="#fff" d="M481 0L54-1118h197c107 314 236 620 325 951 87-331 217-637 324-951h197L670 0H481" id="Q"/><path fill="#fff" d="M577 24c-279 0-473-224-473-580 0-354 195-576 474-576 218 0 287 134 324 193h14v-551h180V0H922v-173h-20C865-111 790 24 577 24zm27-161c203 0 314-172 314-421 0-247-108-413-314-413-212 0-317 181-317 413 0 235 108 421 317 421" id="R"/><g id="c"><use transform="matrix(0.01953125,0,0,0.01953125,0,0)" xlink:href="#G"/><use transform="matrix(0.01953125,0,0,0.01953125,25.6640625,0)" xlink:href="#N"/><use transform="matrix(0.01953125,0,0,0.01953125,49.6484375,0)" xlink:href="#P"/><use transform="matrix(0.01953125,0,0,0.01953125,59.53125,0)" xlink:href="#Q"/><use transform="matrix(0.01953125,0,0,0.01953125,81.23046875,0)" xlink:href="#I"/><use transform="matrix(0.01953125,0,0,0.01953125,104.55078125,0)" xlink:href="#R"/></g><path d="M180 0v-1490h224l606 953c40 63 108 177 176 312-27-437-7-821-13-1265h190V0h-226C860-448 622-778 356-1262c27 476 11 792 15 1262H180" id="S"/><path d="M628 24c-324 0-524-230-524-574 0-343 198-582 503-582 237 0 487 146 487 559v75H286c9 234 145 362 343 362 132 0 231-58 273-172l174 48C1024-91 857 24 628 24zM287-650h624c-17-190-120-322-304-322-192 0-309 151-320 322" id="T"/><path d="M598-1118v154H368v674c0 100 37 144 132 144 23 0 62-6 92-12L629-6c-37 13-88 20-134 20-193 0-307-107-307-290v-688H20v-154h168v-266h180v266h230" id="U"/><path d="M409 0L70-1118h191c89 329 165 560 243 925 75-353 154-601 240-925h192c85 325 161 564 235 922 77-354 157-598 244-922h191L1267 0h-179c-86-307-176-590-250-913C763-588 675-308 588 0H409" id="V"/><path d="M613 24c-304 0-509-231-509-576 0-350 205-580 509-580 305 0 511 230 511 580 0 345-206 576-511 576zm0-161c226 0 329-195 329-415 0-222-103-419-329-419-223 0-326 196-326 419 0 220 103 415 326 415" id="W"/><path d="M158 0v-1118h174v172h12c41-113 157-188 290-188 26 0 70 2 91 3v181c-11-2-60-10-108-10-161 0-279 109-279 260V0H158" id="X"/><path d="M158 0v-1490h180v865h22l478-493h223L593-638 1096 0H865L456-523 338-412V0H158" id="Y"/><g id="d"><use transform="matrix(0.008680555555555556,0,0,0.008680555555555556,0,0)" xlink:href="#S"/><use transform="matrix(0.008680555555555556,0,0,0.008680555555555556,13.394097222222223,0)" xlink:href="#T"/><use transform="matrix(0.008680555555555556,0,0,0.008680555555555556,23.758680555555557,0)" xlink:href="#U"/><use transform="matrix(0.008680555555555556,0,0,0.008680555555555556,29.835069444444446,0)" xlink:href="#V"/><use transform="matrix(0.008680555555555556,0,0,0.008680555555555556,44.0625,0)" xlink:href="#W"/><use transform="matrix(0.008680555555555556,0,0,0.008680555555555556,54.72222222222222,0)" xlink:href="#X"/><use transform="matrix(0.008680555555555556,0,0,0.008680555555555556,61.692708333333336,0)" xlink:href="#Y"/></g><path d="M653-1490V0H466v-1314h-10L96-1047v-204l324-239h233" id="Z"/><use transform="matrix(0.008680555555555556,0,0,0.008680555555555556,0,0)" xlink:href="#Z" id="e"/><path d="M645 0H180v-1490h484c435 0 692 280 692 742 0 466-257 748-711 748zM370-168h263c363 0 539-218 539-580 0-358-176-574-521-574H370v1154" id="aa"/><path d="M481 0L54-1118h197c107 314 236 620 325 951 87-331 217-637 324-951h197L670 0H481" id="ab"/><path d="M158 0v-1118h180V0H158zm91-1301c-68 0-125-53-125-119s57-119 125-119c69 0 126 53 126 119s-57 119-126 119" id="ac"/><path d="M613 24c-304 0-509-231-509-576 0-350 205-580 509-580 216 0 392 114 453 309l-173 49c-33-115-133-197-280-197-223 0-326 196-326 419 0 220 103 415 326 415 150 0 252-85 285-206l172 49C1010-95 832 24 613 24" id="ad"/><g id="f"><use transform="matrix(0.010850694444444444,0,0,0.010850694444444444,0,0)" xlink:href="#aa"/><use transform="matrix(0.010850694444444444,0,0,0.010850694444444444,16.03732638888889,0)" xlink:href="#T"/><use transform="matrix(0.010850694444444444,0,0,0.010850694444444444,28.559027777777775,0)" xlink:href="#ab"/><use transform="matrix(0.010850694444444444,0,0,0.010850694444444444,41.048177083333336,0)" xlink:href="#ac"/><use transform="matrix(0.010850694444444444,0,0,0.010850694444444444,46.43012152777778,0)" xlink:href="#ad"/><use transform="matrix(0.010850694444444444,0,0,0.010850694444444444,59.12543402777778,0)" xlink:href="#T"/></g><path d="M180 0v-1490h528c311 0 458 177 458 395 0 191-114 278-244 313v14c139 9 302 137 302 371 0 225-148 397-499 397H180zm190-168h350c232 0 321-102 321-231 0-149-120-277-311-277H370v508zm0-668h328c160 0 286-101 286-255 0-129-87-231-280-231H370v486" id="ae"/><use transform="matrix(0.010850694444444444,0,0,0.010850694444444444,0,0)" xlink:href="#ae" id="g"/><path d="M218-607c0-325 108-727 258-974h175c-155 315-250 682-250 974 0 265 78 531 250 886H476C306-10 218-315 218-607" id="af"/><path d="M180 0v-1490h270l367 940c28 72 75 218 110 339 35-117 81-264 110-339l362-940h271V0h-187c2-448-5-837 7-1287-157 497-311 829-483 1287H842C666-458 514-784 354-1284c12 438 5 843 7 1284H180" id="ag"/><path d="M537 14c-226 0-379-139-379-422v-710h180v695c0 172 97 275 253 275 160 0 281-109 281-300v-670h181V0H879v-209C806-46 684 14 537 14" id="ah"/><path d="M338-1490V0H158v-1490h180" id="ai"/><path d="M158 418v-1536h174v179h20c37-59 106-193 324-193 279 0 474 222 474 576 0 356-194 580-473 580-213 0-288-135-325-197h-14v591H158zm492-555c209 0 317-186 317-421 0-232-105-413-317-413-206 0-314 166-314 413 0 249 111 421 314 421" id="aj"/><g id="h"><use transform="matrix(0.010850694444444444,0,0,0.010850694444444444,0,0)" xlink:href="#af"/><use transform="matrix(0.010850694444444444,0,0,0.010850694444444444,8.10546875,0)" xlink:href="#ag"/><use transform="matrix(0.010850694444444444,0,0,0.010850694444444444,28.17925347222222,0)" xlink:href="#ah"/><use transform="matrix(0.010850694444444444,0,0,0.010850694444444444,41.31944444444444,0)" xlink:href="#ai"/><use transform="matrix(0.010850694444444444,0,0,0.010850694444444444,47.02690972222222,0)" xlink:href="#U"/><use transform="matrix(0.010850694444444444,0,0,0.010850694444444444,54.296875,0)" xlink:href="#ac"/><use transform="matrix(0.010850694444444444,0,0,0.010850694444444444,59.67881944444444,0)" xlink:href="#aj"/><use transform="matrix(0.010850694444444444,0,0,0.010850694444444444,73.28559027777777,0)" xlink:href="#ai"/><use transform="matrix(0.010850694444444444,0,0,0.010850694444444444,78.66753472222221,0)" xlink:href="#T"/></g><path d="M538 24C308 24 148-78 108-271l171-41c32 123 123 178 257 178 156 0 256-77 256-169 0-77-54-128-164-154l-186-44c-203-48-300-148-300-305 0-192 176-326 414-326 230 0 351 112 402 269l-163 42c-31-80-94-158-238-158-133 0-233 69-233 162 0 83 57 129 188 160l169 40c203 48 298 149 298 302 0 196-179 339-441 339" id="ak"/><g id="i"><use transform="matrix(0.010850694444444444,0,0,0.010850694444444444,0,0)" xlink:href="#ak"/><use transform="matrix(0.010850694444444444,0,0,0.010850694444444444,11.729600694444445,0)" xlink:href="#T"/><use transform="matrix(0.010850694444444444,0,0,0.010850694444444444,24.68532986111111,0)" xlink:href="#X"/><use transform="matrix(0.010850694444444444,0,0,0.010850694444444444,33.3984375,0)" xlink:href="#ab"/><use transform="matrix(0.010850694444444444,0,0,0.010850694444444444,45.88758680555556,0)" xlink:href="#ac"/><use transform="matrix(0.010850694444444444,0,0,0.010850694444444444,51.26953125,0)" xlink:href="#ad"/><use transform="matrix(0.010850694444444444,0,0,0.010850694444444444,63.96484375,0)" xlink:href="#T"/><use transform="matrix(0.010850694444444444,0,0,0.010850694444444444,76.92057291666667,0)" xlink:href="#ak"/></g><path d="M338-670V0H158v-1118h173l1 207c72-158 192-221 342-221 226 0 378 139 378 422V0H872v-695c0-172-96-275-252-275-161 0-282 109-282 300" id="al"/><path d="M611 442c-248 0-391-105-460-228l146-94c47 65 117 165 314 165 178 0 307-82 307-266v-224h-17C863-141 792-18 576-18c-268 0-472-195-472-546 0-346 197-568 476-568 216 0 288 133 326 193h17v-179h175V29c0 289-215 413-487 413zm-5-620c203 0 314-146 314-390 0-237-108-403-314-403-213 0-319 180-319 403 0 230 109 390 319 390" id="am"/><g id="j"><use transform="matrix(0.010850694444444444,0,0,0.010850694444444444,0,0)" xlink:href="#X"/><use transform="matrix(0.010850694444444444,0,0,0.010850694444444444,8.365885416666666,0)" xlink:href="#ah"/><use transform="matrix(0.010850694444444444,0,0,0.010850694444444444,21.506076388888886,0)" xlink:href="#al"/><use transform="matrix(0.010850694444444444,0,0,0.010850694444444444,34.635416666666664,0)" xlink:href="#al"/><use transform="matrix(0.010850694444444444,0,0,0.010850694444444444,47.76475694444444,0)" xlink:href="#ac"/><use transform="matrix(0.010850694444444444,0,0,0.010850694444444444,53.146701388888886,0)" xlink:href="#al"/><use transform="matrix(0.010850694444444444,0,0,0.010850694444444444,66.27604166666666,0)" xlink:href="#am"/></g><g id="k"><use transform="matrix(0.010850694444444444,0,0,0.010850694444444444,0,0)" xlink:href="#ac"/><use transform="matrix(0.010850694444444444,0,0,0.010850694444444444,5.381944444444445,0)" xlink:href="#al"/></g><path d="M471 26C259 26 90-98 90-318c0-256 228-303 435-329 202-27 287-16 287-108 0-139-79-219-234-219-161 0-248 86-283 164l-173-57c86-203 278-265 451-265 150 0 419 46 419 395V0H815v-152h-12C765-73 660 26 471 26zm31-159c199 0 310-134 310-271v-155c-30 35-226 55-295 64-131 17-246 59-246 186 0 116 97 176 231 176" id="an"/><path d="M96 279C273-86 346-350 346-607c0-292-95-659-250-974h175c150 246 258 650 258 974 0 297-91 602-258 886H96" id="ao"/><g id="l"><use transform="matrix(0.010850694444444444,0,0,0.010850694444444444,0,0)" xlink:href="#ai"/><use transform="matrix(0.010850694444444444,0,0,0.010850694444444444,5.381944444444445,0)" xlink:href="#W"/><use transform="matrix(0.010850694444444444,0,0,0.010850694444444444,18.70659722222222,0)" xlink:href="#ad"/><use transform="matrix(0.010850694444444444,0,0,0.010850694444444444,31.61892361111111,0)" xlink:href="#an"/><use transform="matrix(0.010850694444444444,0,0,0.010850694444444444,44.09722222222222,0)" xlink:href="#ai"/><use transform="matrix(0.010850694444444444,0,0,0.010850694444444444,49.479166666666664,0)" xlink:href="#ao"/></g><path d="M52 0l541-1490h220L1361 0h-200l-149-416H398L254 0H52zm404-582h497c-103-290-145-390-251-756-108 377-145 460-246 756" id="ap"/><use transform="matrix(0.010850694444444444,0,0,0.010850694444444444,0,0)" xlink:href="#ap" id="m"/><path d="M180 0v-1490h510c348 0 508 209 508 474 0 266-160 477-507 477H370V0H180zm190-706h312c236 0 327-133 327-310 0-176-91-307-329-307H370v617" id="aq"/><g id="o"><use transform="matrix(0.006510416666666667,0,0,0.006510416666666667,0,0)" xlink:href="#aq"/><use transform="matrix(0.006510416666666667,0,0,0.006510416666666667,8.444010416666666,0)" xlink:href="#W"/><use transform="matrix(0.006510416666666667,0,0,0.006510416666666667,16.438802083333332,0)" xlink:href="#X"/><use transform="matrix(0.006510416666666667,0,0,0.006510416666666667,21.666666666666664,0)" xlink:href="#U"/></g><path d="M633 20c-303 0-511-173-511-416 0-188 124-348 291-378v-8c-145-37-237-174-237-332 0-227 192-396 457-396 261 0 456 169 456 396 0 158-94 295-235 332v8c162 30 291 190 291 378 0 243-212 416-512 416zm0-165c197 0 322-103 322-261 0-165-138-283-322-283-188 0-324 118-324 283 0 158 123 261 324 261zm0-703c157 0 272-101 272-252 0-149-110-246-272-246-165 0-273 97-273 246 0 151 112 252 273 252" id="ar"/><path d="M646 20c-332 0-524-278-524-764 0-483 194-766 524-766s524 283 524 766c0 485-191 764-524 764zm0-166c218 0 341-220 341-598 0-380-123-601-341-601s-341 222-341 601c0 378 123 598 341 598" id="as"/><g id="p"><use transform="matrix(0.006510416666666667,0,0,0.006510416666666667,0,0)" xlink:href="#ar"/><use transform="matrix(0.006510416666666667,0,0,0.006510416666666667,8.248697916666668,0)" xlink:href="#as"/></g><path d="M854 0L202-652l652-652 116 116c-165 167-335 338-528 481 76-15 153-28 230-28h1026v166H672c-77 0-154-13-230-28 192 142 364 314 528 481" id="at"/><use transform="matrix(0.010850694444444444,0,0,0.010850694444444444,0,0)" xlink:href="#at" id="q"/><path d="M657 26c-323 0-524-166-541-416h195c15 169 171 246 346 246 202 0 356-106 356-265 5-203-294-238-475-293-239-73-380-191-380-389 0-252 224-419 512-419 294 0 499 171 508 396H992c-17-145-151-228-328-228-193 0-321 102-321 242 0 156 175 211 284 241l149 41c160 44 422 134 422 412 0 244-197 432-541 432" id="au"/><path d="M180 0v-1490h190v644h782v-644h190V0h-190v-678H370V0H180" id="av"/><g id="r"><use transform="matrix(0.010850694444444444,0,0,0.010850694444444444,0,0)" xlink:href="#au"/><use transform="matrix(0.010850694444444444,0,0,0.010850694444444444,14.2578125,0)" xlink:href="#au"/><use transform="matrix(0.010850694444444444,0,0,0.010850694444444444,28.515625,0)" xlink:href="#av"/></g><path d="M98-1322v-168h1126v168H757V0H567v-1322H98" id="aw"/><g id="s"><use transform="matrix(0.010850694444444444,0,0,0.010850694444444444,0,0)" xlink:href="#aw"/><use transform="matrix(0.010850694444444444,0,0,0.010850694444444444,12.706163194444445,0)" xlink:href="#ah"/><use transform="matrix(0.010850694444444444,0,0,0.010850694444444444,25.846354166666664,0)" xlink:href="#al"/><use transform="matrix(0.010850694444444444,0,0,0.010850694444444444,38.97569444444444,0)" xlink:href="#al"/><use transform="matrix(0.010850694444444444,0,0,0.010850694444444444,52.10503472222222,0)" xlink:href="#T"/><use transform="matrix(0.010850694444444444,0,0,0.010850694444444444,65.06076388888889,0)" xlink:href="#ai"/></g><g id="t"><use transform="matrix(0.006510416666666667,0,0,0.006510416666666667,0,0)" xlink:href="#aq"/><use transform="matrix(0.006510416666666667,0,0,0.006510416666666667,8.444010416666666,0)" xlink:href="#W"/><use transform="matrix(0.006510416666666667,0,0,0.006510416666666667,16.438802083333332,0)" xlink:href="#X"/><use transform="matrix(0.006510416666666667,0,0,0.006510416666666667,21.666666666666664,0)" xlink:href="#U"/></g><path d="M635 20c-292 0-500-160-510-396h192c11 142 145 229 315 229 187 0 323-105 323-260 0-161-125-274-346-274H488v-165h121c174 0 294-100 294-254 0-148-104-245-266-245-152 0-291 85-297 230H157c8-234 222-395 484-395 278 0 448 188 448 400 0 168-95 291-247 336v12c190 31 301 169 301 357 0 244-216 425-508 425" id="ax"/><g id="u"><use transform="matrix(0.006510416666666667,0,0,0.006510416666666667,0,0)" xlink:href="#ax"/><use transform="matrix(0.006510416666666667,0,0,0.006510416666666667,8.235677083333334,0)" xlink:href="#ax"/><use transform="matrix(0.006510416666666667,0,0,0.006510416666666667,16.471354166666668,0)" xlink:href="#ax"/><use transform="matrix(0.006510416666666667,0,0,0.006510416666666667,24.70703125,0)" xlink:href="#ax"/></g><path d="M65 0l393-574-370-544h210c88 136 192 297 267 435 67-142 176-302 264-435h206L661-564 1053 0H844c-94-144-206-310-287-458C484-308 366-142 273 0H65" id="ay"/><path d="M140 405l46-156c120 36 205 19 263-150l32-93L54-1118h197c107 313 237 620 324 950 87-331 219-637 326-950h196L606 167c-68 178-176 259-334 259-64 0-113-12-132-21" id="az"/><path d="M338-670V0H158v-1490h180v566c73-149 190-208 336-208 226 0 379 139 379 422V0H872v-695c0-172-96-275-252-275-161 0-282 109-282 300" id="aA"/><g id="v"><use transform="matrix(0.008680555555555556,0,0,0.008680555555555556,0,0)" xlink:href="#aj"/><use transform="matrix(0.008680555555555556,0,0,0.008680555555555556,10.885416666666668,0)" xlink:href="#X"/><use transform="matrix(0.008680555555555556,0,0,0.008680555555555556,17.282986111111114,0)" xlink:href="#W"/><use transform="matrix(0.008680555555555556,0,0,0.008680555555555556,27.54340277777778,0)" xlink:href="#ay"/><use transform="matrix(0.008680555555555556,0,0,0.008680555555555556,37.248263888888886,0)" xlink:href="#az"/><use transform="matrix(0.008680555555555556,0,0,0.008680555555555556,46.89236111111111,0)" xlink:href="#ad"/><use transform="matrix(0.008680555555555556,0,0,0.008680555555555556,57.04861111111111,0)" xlink:href="#aA"/><use transform="matrix(0.008680555555555556,0,0,0.008680555555555556,67.56076388888889,0)" xlink:href="#an"/><use transform="matrix(0.008680555555555556,0,0,0.008680555555555556,77.54340277777777,0)" xlink:href="#ac"/><use transform="matrix(0.008680555555555556,0,0,0.008680555555555556,81.84895833333331,0)" xlink:href="#al"/><use transform="matrix(0.008680555555555556,0,0,0.008680555555555556,92.35243055555556,0)" xlink:href="#ak"/></g><g id="w"><use transform="matrix(0.008680555555555556,0,0,0.008680555555555556,0,0)" xlink:href="#ad"/><use transform="matrix(0.008680555555555556,0,0,0.008680555555555556,10.15625,0)" xlink:href="#ah"/><use transform="matrix(0.008680555555555556,0,0,0.008680555555555556,20.66840277777778,0)" xlink:href="#X"/><use transform="matrix(0.008680555555555556,0,0,0.008680555555555556,27.638888888888893,0)" xlink:href="#ai"/></g><path d="M295 13c-75 0-135-60-135-135s60-135 135-135 135 60 135 135S370 13 295 13zm0-809c-75 0-135-60-135-135s60-135 135-135 135 60 135 135-60 135-135 135" id="aB"/><path d="M692-1560L212 224H46l480-1784h166" id="aC"/><g id="x"><use transform="matrix(0.008680555555555556,0,0,0.008680555555555556,0,0)" xlink:href="#aA"/><use transform="matrix(0.008680555555555556,0,0,0.008680555555555556,10.512152777777779,0)" xlink:href="#U"/><use transform="matrix(0.008680555555555556,0,0,0.008680555555555556,15.894097222222221,0)" xlink:href="#U"/><use transform="matrix(0.008680555555555556,0,0,0.008680555555555556,21.710069444444443,0)" xlink:href="#aj"/><use transform="matrix(0.008680555555555556,0,0,0.008680555555555556,32.595486111111114,0)" xlink:href="#aB"/><use transform="matrix(0.008680555555555556,0,0,0.008680555555555556,37.71701388888889,0)" xlink:href="#aC"/><use transform="matrix(0.008680555555555556,0,0,0.008680555555555556,44.12326388888889,0)" xlink:href="#aC"/><use transform="matrix(0.008680555555555556,0,0,0.008680555555555556,50.52951388888889,0)" xlink:href="#ai"/><use transform="matrix(0.008680555555555556,0,0,0.008680555555555556,54.83506944444445,0)" xlink:href="#W"/><use transform="matrix(0.008680555555555556,0,0,0.008680555555555556,65.49479166666667,0)" xlink:href="#ad"/><use transform="matrix(0.008680555555555556,0,0,0.008680555555555556,75.82465277777779,0)" xlink:href="#an"/><use transform="matrix(0.008680555555555556,0,0,0.008680555555555556,85.80729166666667,0)" xlink:href="#ai"/><use transform="matrix(0.008680555555555556,0,0,0.008680555555555556,90.11284722222223,0)" xlink:href="#aA"/><use transform="matrix(0.008680555555555556,0,0,0.008680555555555556,100.625,0)" xlink:href="#W"/><use transform="matrix(0.008680555555555556,0,0,0.008680555555555556,111.28472222222223,0)" xlink:href="#ak"/><use transform="matrix(0.008680555555555556,0,0,0.008680555555555556,120.66840277777779,0)" xlink:href="#U"/><use transform="matrix(0.008680555555555556,0,0,0.008680555555555556,126.48437500000003,0)" xlink:href="#aB"/><use transform="matrix(0.008680555555555556,0,0,0.008680555555555556,131.6059027777778,0)" xlink:href="#ar"/><use transform="matrix(0.008680555555555556,0,0,0.008680555555555556,142.60416666666669,0)" xlink:href="#as"/></g><g id="y"><use transform="matrix(0.007595486111111112,0,0,0.007595486111111112,0,0)" xlink:href="#ak"/><use transform="matrix(0.007595486111111112,0,0,0.007595486111111112,8.210720486111112,0)" xlink:href="#ak"/><use transform="matrix(0.007595486111111112,0,0,0.007595486111111112,16.421440972222225,0)" xlink:href="#aA"/></g><path d="M798-719v166H144v-166h654" id="aD"/><g id="z"><use transform="matrix(0.007595486111111112,0,0,0.007595486111111112,0,0)" xlink:href="#aD"/><use transform="matrix(0.007595486111111112,0,0,0.007595486111111112,7.154947916666667,0)" xlink:href="#aa"/></g><g id="A"><use transform="matrix(0.007595486111111112,0,0,0.007595486111111112,0,0)" xlink:href="#ax"/><use transform="matrix(0.007595486111111112,0,0,0.007595486111111112,9.608289930555557,0)" xlink:href="#ax"/><use transform="matrix(0.007595486111111112,0,0,0.007595486111111112,19.216579861111114,0)" xlink:href="#ax"/><use transform="matrix(0.007595486111111112,0,0,0.007595486111111112,28.82486979166667,0)" xlink:href="#ax"/></g><g id="B"><use transform="matrix(0.007595486111111112,0,0,0.007595486111111112,0,0)" xlink:href="#ai"/><use transform="matrix(0.007595486111111112,0,0,0.007595486111111112,3.7673611111111116,0)" xlink:href="#W"/><use transform="matrix(0.007595486111111112,0,0,0.007595486111111112,13.094618055555557,0)" xlink:href="#ad"/><use transform="matrix(0.007595486111111112,0,0,0.007595486111111112,22.13324652777778,0)" xlink:href="#an"/><use transform="matrix(0.007595486111111112,0,0,0.007595486111111112,30.868055555555557,0)" xlink:href="#ai"/><use transform="matrix(0.007595486111111112,0,0,0.007595486111111112,34.63541666666667,0)" xlink:href="#aA"/><use transform="matrix(0.007595486111111112,0,0,0.007595486111111112,43.83355034722223,0)" xlink:href="#W"/><use transform="matrix(0.007595486111111112,0,0,0.007595486111111112,53.16080729166667,0)" xlink:href="#ak"/><use transform="matrix(0.007595486111111112,0,0,0.007595486111111112,61.371527777777786,0)" xlink:href="#U"/></g><path d="M646 20c-249 0-524-159-524-708 0-524 209-822 547-822 250 0 431 161 467 395H950c-33-129-126-227-281-227-229 0-367 208-367 566h12c80-124 212-198 367-198 255 0 467 205 467 493 0 278-198 501-502 501zm0-167c179 0 318-148 318-334 0-182-133-328-313-328-181 0-322 156-322 330 0 176 134 332 317 332" id="aE"/><g id="C"><use transform="matrix(0.006510416666666667,0,0,0.006510416666666667,0,0)" xlink:href="#ax"/><use transform="matrix(0.006510416666666667,0,0,0.006510416666666667,8.235677083333334,0)" xlink:href="#ax"/><use transform="matrix(0.006510416666666667,0,0,0.006510416666666667,16.471354166666668,0)" xlink:href="#as"/><use transform="matrix(0.006510416666666667,0,0,0.006510416666666667,24.8828125,0)" xlink:href="#aE"/></g><path d="M180 0v-1490h510c348 0 508 194 508 460 0 198-88 351-276 417L1256 0h-220L726-579c-117 2-238 0-356 1V0H180zm190-747h312c235 0 327-108 327-283 0-177-92-293-329-293H370v576" id="aF"/><g id="D"><use transform="matrix(0.007595486111111112,0,0,0.007595486111111112,0,0)" xlink:href="#aD"/><use transform="matrix(0.007595486111111112,0,0,0.007595486111111112,7.154947916666667,0)" xlink:href="#aF"/></g><g id="E"><use transform="matrix(0.007595486111111112,0,0,0.007595486111111112,0,0)" xlink:href="#ax"/><use transform="matrix(0.007595486111111112,0,0,0.007595486111111112,9.608289930555557,0)" xlink:href="#ax"/><use transform="matrix(0.007595486111111112,0,0,0.007595486111111112,19.216579861111114,0)" xlink:href="#ax"/><use transform="matrix(0.007595486111111112,0,0,0.007595486111111112,28.82486979166667,0)" xlink:href="#ax"/><use transform="matrix(0.007595486111111112,0,0,0.007595486111111112,38.43315972222223,0)" xlink:href="#aB"/><use transform="matrix(0.007595486111111112,0,0,0.007595486111111112,42.914496527777786,0)" xlink:href="#ai"/><use transform="matrix(0.007595486111111112,0,0,0.007595486111111112,46.6818576388889,0)" xlink:href="#W"/><use transform="matrix(0.007595486111111112,0,0,0.007595486111111112,56.00911458333334,0)" xlink:href="#ad"/><use transform="matrix(0.007595486111111112,0,0,0.007595486111111112,65.04774305555557,0)" xlink:href="#an"/><use transform="matrix(0.007595486111111112,0,0,0.007595486111111112,73.78255208333334,0)" xlink:href="#ai"/><use transform="matrix(0.007595486111111112,0,0,0.007595486111111112,77.54991319444446,0)" xlink:href="#aA"/><use transform="matrix(0.007595486111111112,0,0,0.007595486111111112,86.74804687500001,0)" xlink:href="#W"/><use transform="matrix(0.007595486111111112,0,0,0.007595486111111112,96.07530381944446,0)" xlink:href="#ak"/><use transform="matrix(0.007595486111111112,0,0,0.007595486111111112,104.28602430555557,0)" xlink:href="#U"/><use transform="matrix(0.007595486111111112,0,0,0.007595486111111112,109.37500000000001,0)" xlink:href="#aB"/><use transform="matrix(0.007595486111111112,0,0,0.007595486111111112,113.85633680555557,0)" xlink:href="#ax"/><use transform="matrix(0.007595486111111112,0,0,0.007595486111111112,123.46462673611113,0)" xlink:href="#ax"/><use transform="matrix(0.007595486111111112,0,0,0.007595486111111112,133.07291666666669,0)" xlink:href="#ax"/><use transform="matrix(0.007595486111111112,0,0,0.007595486111111112,142.68120659722223,0)" xlink:href="#ax"/></g><path d="M1044 395c-595 0-922-332-922-920 0-569 336-913 901-913 548 0 833 392 833 798 0 285-36 610-344 610-104 0-258-44-276-168h-8c-35 86-122 161-273 161-266 0-403-216-403-498 0-268 174-469 413-469 128 0 216 57 252 108h10v-84h158v659c0 80 45 150 131 150 146 0 181-145 181-471 0-331-218-652-680-652-458 0-728 289-728 774 0 492 266 770 762 770 159 0 323-57 382-77l43 140c-92 39-281 82-432 82zm-82-585c193 0 271-116 271-353 0-239-92-310-266-310-164 0-260 143-260 310 0 185 69 353 255 353" id="aG"/><path d="M370-1490V0H180v-1490h190" id="aH"/><path d="M934 0v166H0V0h934" id="aI"/><path d="M784 20c-382 0-662-292-662-764 0-473 280-766 662-766s660 293 660 766c0 472-278 764-660 764zm0-176c266 0 475-207 475-588 0-383-209-590-475-590-268 0-477 208-477 590 0 380 209 588 477 588" id="aJ"/><g id="F"><use transform="matrix(0.007595486111111112,0,0,0.007595486111111112,0,0)" xlink:href="#an"/><use transform="matrix(0.007595486111111112,0,0,0.007595486111111112,8.734809027777779,0)" xlink:href="#ai"/><use transform="matrix(0.007595486111111112,0,0,0.007595486111111112,12.50217013888889,0)" xlink:href="#ac"/><use transform="matrix(0.007595486111111112,0,0,0.007595486111111112,16.26953125,0)" xlink:href="#ad"/><use transform="matrix(0.007595486111111112,0,0,0.007595486111111112,25.15625,0)" xlink:href="#T"/><use transform="matrix(0.007595486111111112,0,0,0.007595486111111112,34.22526041666667,0)" xlink:href="#aG"/><use transform="matrix(0.007595486111111112,0,0,0.007595486111111112,49.24913194444445,0)" xlink:href="#aH"/><use transform="matrix(0.007595486111111112,0,0,0.007595486111111112,53.426649305555564,0)" xlink:href="#aq"/><use transform="matrix(0.007595486111111112,0,0,0.007595486111111112,63.36154513888889,0)" xlink:href="#aI"/><use transform="matrix(0.007595486111111112,0,0,0.007595486111111112,70.97981770833334,0)" xlink:href="#av"/><use transform="matrix(0.007595486111111112,0,0,0.007595486111111112,82.54014756944446,0)" xlink:href="#aJ"/><use transform="matrix(0.007595486111111112,0,0,0.007595486111111112,94.43467881944446,0)" xlink:href="#au"/><use transform="matrix(0.007595486111111112,0,0,0.007595486111111112,104.41514756944446,0)" xlink:href="#aw"/><use transform="matrix(0.007595486111111112,0,0,0.007595486111111112,113.57530381944446,0)" xlink:href="#aI"/><use transform="matrix(0.007595486111111112,0,0,0.007595486111111112,120.66948784722223,0)" xlink:href="#ap"/></g></defs></g></svg>