<?xml version="1.0" standalone="no"?>
<!DOCTYPE svg PUBLIC "-//W3C//DTD SVG 20010904//EN"
 "http://www.w3.org/TR/2001/REC-SVG-20010904/DTD/svg10.dtd">
<svg version="1.0" xmlns="http://www.w3.org/2000/svg"
 width="1024.000000pt" height="1024.000000pt" viewBox="0 0 1024.000000 1024.000000"
 preserveAspectRatio="xMidYMid meet">
<metadata>
Created by potrace 1.14, written by Peter Selinger 2001-2017
</metadata>
<g transform="translate(0.000000,1024.000000) scale(0.100000,-0.100000)"
fill="#000000" stroke="none">
<path d="M2480 7859 l0 -110 113 -182 c179 -287 266 -428 347 -560 42 -67 120
-193 173 -279 53 -86 97 -162 97 -167 0 -8 -68 -11 -205 -11 -113 0 -205 -3
-205 -6 0 -3 75 -127 167 -275 l167 -269 215 0 216 0 122 -198 123 -197 -190
-3 c-127 -2 -190 -6 -190 -13 0 -6 16 -37 36 -69 l35 -58 184 -7 c100 -4 192
-4 204 0 11 3 21 2 21 -2 0 -5 19 -39 43 -75 97 -153 122 -193 129 -210 4 -10
30 -51 58 -91 27 -41 50 -77 50 -80 0 -3 45 -78 100 -167 l100 -160 0 -404 c0
-359 2 -405 16 -410 9 -3 73 -6 144 -6 l128 0 4 -262 c2 -145 2 -269 0 -275
-3 -10 -41 -13 -146 -13 l-141 0 0 -223 c0 -255 -3 -283 -31 -279 -10 1 -97 0
-192 -4 l-173 -6 3 -67 3 -66 193 -3 192 -2 0 -190 0 -190 830 0 830 0 5 22
c3 13 4 244 3 514 l-3 492 59 6 c32 3 99 6 148 6 l88 0 -2 268 -3 267 -125 2
c-69 2 -134 5 -145 8 -19 4 -20 11 -17 245 l3 240 89 0 90 0 0 65 0 65 -90 0
-90 0 0 103 c1 99 1 104 35 156 19 30 33 56 31 58 -2 3 -23 5 -47 5 -24 0 -38
3 -31 5 7 3 12 23 12 53 0 29 -5 50 -12 53 -8 3 -6 6 5 6 10 1 17 -6 17 -17 0
-15 6 -17 34 -14 27 3 37 0 46 -18 9 -17 15 -19 23 -11 9 9 8 14 -3 21 -13 8
-12 10 2 10 10 0 33 24 53 55 39 61 40 65 23 65 -22 0 -98 42 -98 54 0 7 9 21
19 30 18 16 21 16 57 -3 52 -28 69 -26 93 8 34 47 28 58 -54 96 l-75 34 21 36
c12 21 25 32 28 26 7 -10 152 -85 155 -79 0 2 7 13 14 25 6 13 12 30 12 38 0
8 4 15 9 15 4 0 26 28 48 63 99 154 403 645 403 651 0 3 -95 6 -211 6 -116 0
-209 3 -207 8 2 4 39 65 83 135 44 70 100 160 124 200 24 40 63 102 87 138
l42 67 220 7 219 7 89 143 88 142 110 7 c61 3 141 6 179 6 l67 0 0 44 c0 26
-5 46 -12 49 -8 3 -6 6 5 6 11 1 17 -6 17 -20 0 -15 4 -19 16 -15 9 3 21 6 28
6 6 0 20 14 29 30 l18 30 -98 1 c-54 1 -135 4 -180 7 l-81 7 118 189 c65 104
116 195 113 202 -6 17 13 52 35 58 9 3 59 73 110 154 l92 149 0 106 0 107
-902 0 -903 0 -125 -231 c-69 -127 -149 -277 -179 -333 -29 -55 -90 -166 -134
-246 -44 -80 -95 -172 -112 -205 -18 -33 -41 -76 -52 -95 -11 -19 -50 -91 -88
-160 -37 -69 -72 -131 -77 -137 -8 -10 -58 -13 -187 -13 l-176 0 -86 158 -85
157 -44 3 c-39 3 -42 2 -31 -12 16 -19 42 -21 59 -4 9 9 12 9 12 0 0 -16 -50
-27 -69 -15 -9 6 -17 24 -19 42 -3 27 1 33 27 44 28 12 29 15 17 33 -12 17
-55 94 -86 153 l-12 23 -19 -32 c-21 -34 -72 -60 -116 -60 -22 0 -32 8 -49 38
l-20 38 51 -4 c59 -5 78 10 73 54 -2 23 -14 34 -68 60 -61 31 -63 33 -32 33
31 1 42 14 22 26 -5 3 -10 10 -10 15 0 5 21 0 46 -10 25 -11 61 -20 79 -20 29
0 34 4 37 28 2 15 9 27 16 27 16 0 16 9 -3 45 -18 34 -22 36 -46 14 -13 -12
-22 -13 -38 -5 -32 17 -79 13 -101 -9 l-20 -20 -10 24 c-5 13 -14 27 -20 31
-14 8 6 35 26 35 7 0 15 4 18 9 4 5 -46 105 -110 223 -64 117 -126 231 -138
253 l-21 40 -898 3 -897 2 0 -111z m1932 -416 c27 -24 22 -33 -16 -33 -36 0
-58 26 -34 42 19 12 29 10 50 -9z m-452 -107 c0 -71 -4 -76 -70 -76 -64 0 -70
6 -70 69 0 32 3 61 7 64 3 4 35 7 70 7 l63 0 0 -64z m3380 -338 c10 -62 11
-86 5 -114 -6 -33 -7 -34 -54 -34 -26 0 -76 3 -110 6 l-61 7 0 63 0 63 88 4
c48 1 97 4 110 5 12 1 22 1 22 0z m-2590 -57 c0 -13 -14 -12 -52 4 -10 4 -24
-1 -38 -15 -12 -12 -25 -19 -28 -15 -4 4 4 15 17 26 28 23 101 23 101 0z m10
-78 c0 -26 -3 -28 -43 -30 -37 -1 -39 0 -17 8 40 16 43 33 7 40 -30 6 -30 6
11 8 40 1 42 -1 42 -26z m210 -313 c-1 -6 -32 -64 -165 -307 -85 -156 -90
-163 -119 -163 -28 0 -34 7 -69 73 -20 39 -37 77 -37 83 0 6 23 52 51 102 l51
91 -31 54 c-17 30 -31 57 -31 60 0 4 51 8 113 9 169 4 237 4 237 -2z m-690
-1025 l0 -65 -113 0 -114 0 1 65 1 65 113 0 112 0 0 -65z m2103 -137 c32 -12
32 -15 8 -47 -15 -20 -21 -22 -39 -12 -11 6 -34 11 -51 11 -37 0 -37 3 -10 41
22 31 28 31 92 7z m-263 -338 c0 -49 -1 -50 -30 -50 -16 0 -30 3 -30 6 0 7 53
94 58 94 1 0 2 -22 2 -50z m-460 -645 l0 -65 -90 0 -90 0 0 65 0 65 90 0 90 0
0 -65z m214 -1166 c-23 -24 -30 -27 -32 -14 -6 28 7 45 35 45 l27 0 -30 -31z
m12 -214 l36 -35 -41 0 c-40 0 -41 1 -41 35 0 19 2 35 5 35 2 0 21 -16 41 -35z
m11 -147 c-3 -8 -6 -5 -6 6 -1 11 2 17 5 13 3 -3 4 -12 1 -19z m-1127 -87 c12
-1 14 -14 12 -66 l-4 -65 -109 0 -109 0 0 64 0 65 43 3 c37 3 125 2 167 -1z
m-325 -11 c-3 -5 -16 -10 -28 -9 -21 0 -21 1 -2 9 28 12 37 12 30 0z m81 -15
c-1 -17 -7 -25 -20 -25 -15 0 -16 3 -6 15 6 8 9 19 5 25 -3 5 0 10 8 10 10 0
14 -9 13 -25z"/>
<path d="M4808 6909 c-29 -16 -21 -29 17 -29 37 0 43 8 23 28 -14 14 -18 14
-40 1z"/>
<path d="M7796 6904 c-9 -8 -16 -23 -16 -32 1 -14 5 -12 20 7 30 35 26 56 -4
25z"/>
<path d="M6075 4850 c-13 -41 43 -70 64 -33 13 25 -5 53 -34 53 -15 0 -26 -7
-30 -20z"/>
</g>
</svg>
